%TF.GenerationSoftware,KiCad,Pcbnew,(5.1.10)-1*%
%TF.CreationDate,2022-09-19T20:48:06-07:00*%
%TF.ProjectId,MPPT_1KW_ESP32_ggmV3,4d505054-5f31-44b5-975f-45535033325f,rev?*%
%TF.SameCoordinates,Original*%
%TF.FileFunction,Legend,Bot*%
%TF.FilePolarity,Positive*%
%FSLAX46Y46*%
G04 Gerber Fmt 4.6, Leading zero omitted, Abs format (unit mm)*
G04 Created by KiCad (PCBNEW (5.1.10)-1) date 2022-09-19 20:48:06*
%MOMM*%
%LPD*%
G01*
G04 APERTURE LIST*
%ADD10C,0.150000*%
%ADD11C,0.120000*%
G04 APERTURE END LIST*
D10*
X123719047Y-163671428D02*
X122957142Y-163671428D01*
X120242857Y-164004761D02*
X120100000Y-164052380D01*
X119861904Y-164052380D01*
X119766666Y-164004761D01*
X119719047Y-163957142D01*
X119671428Y-163861904D01*
X119671428Y-163766666D01*
X119719047Y-163671428D01*
X119766666Y-163623809D01*
X119861904Y-163576190D01*
X120052380Y-163528571D01*
X120147619Y-163480952D01*
X120195238Y-163433333D01*
X120242857Y-163338095D01*
X120242857Y-163242857D01*
X120195238Y-163147619D01*
X120147619Y-163100000D01*
X120052380Y-163052380D01*
X119814285Y-163052380D01*
X119671428Y-163100000D01*
X119052380Y-163052380D02*
X118861904Y-163052380D01*
X118766666Y-163100000D01*
X118671428Y-163195238D01*
X118623809Y-163385714D01*
X118623809Y-163719047D01*
X118671428Y-163909523D01*
X118766666Y-164004761D01*
X118861904Y-164052380D01*
X119052380Y-164052380D01*
X119147619Y-164004761D01*
X119242857Y-163909523D01*
X119290476Y-163719047D01*
X119290476Y-163385714D01*
X119242857Y-163195238D01*
X119147619Y-163100000D01*
X119052380Y-163052380D01*
X117719047Y-164052380D02*
X118195238Y-164052380D01*
X118195238Y-163052380D01*
X117433333Y-163766666D02*
X116957142Y-163766666D01*
X117528571Y-164052380D02*
X117195238Y-163052380D01*
X116861904Y-164052380D01*
X115957142Y-164052380D02*
X116290476Y-163576190D01*
X116528571Y-164052380D02*
X116528571Y-163052380D01*
X116147619Y-163052380D01*
X116052380Y-163100000D01*
X116004761Y-163147619D01*
X115957142Y-163242857D01*
X115957142Y-163385714D01*
X116004761Y-163480952D01*
X116052380Y-163528571D01*
X116147619Y-163576190D01*
X116528571Y-163576190D01*
X113242857Y-163671428D02*
X112480952Y-163671428D01*
X112861904Y-164052380D02*
X112861904Y-163290476D01*
X141995238Y-163671428D02*
X141233333Y-163671428D01*
X138900000Y-163528571D02*
X138757142Y-163576190D01*
X138709523Y-163623809D01*
X138661904Y-163719047D01*
X138661904Y-163861904D01*
X138709523Y-163957142D01*
X138757142Y-164004761D01*
X138852380Y-164052380D01*
X139233333Y-164052380D01*
X139233333Y-163052380D01*
X138900000Y-163052380D01*
X138804761Y-163100000D01*
X138757142Y-163147619D01*
X138709523Y-163242857D01*
X138709523Y-163338095D01*
X138757142Y-163433333D01*
X138804761Y-163480952D01*
X138900000Y-163528571D01*
X139233333Y-163528571D01*
X138280952Y-163766666D02*
X137804761Y-163766666D01*
X138376190Y-164052380D02*
X138042857Y-163052380D01*
X137709523Y-164052380D01*
X137519047Y-163052380D02*
X136947619Y-163052380D01*
X137233333Y-164052380D02*
X137233333Y-163052380D01*
X136757142Y-163052380D02*
X136185714Y-163052380D01*
X136471428Y-164052380D02*
X136471428Y-163052380D01*
X135852380Y-163528571D02*
X135519047Y-163528571D01*
X135376190Y-164052380D02*
X135852380Y-164052380D01*
X135852380Y-163052380D01*
X135376190Y-163052380D01*
X134376190Y-164052380D02*
X134709523Y-163576190D01*
X134947619Y-164052380D02*
X134947619Y-163052380D01*
X134566666Y-163052380D01*
X134471428Y-163100000D01*
X134423809Y-163147619D01*
X134376190Y-163242857D01*
X134376190Y-163385714D01*
X134423809Y-163480952D01*
X134471428Y-163528571D01*
X134566666Y-163576190D01*
X134947619Y-163576190D01*
X133757142Y-163576190D02*
X133757142Y-164052380D01*
X134090476Y-163052380D02*
X133757142Y-163576190D01*
X133423809Y-163052380D01*
X131566666Y-163671428D02*
X130804761Y-163671428D01*
X131185714Y-164052380D02*
X131185714Y-163290476D01*
X108023809Y-152404761D02*
X107880952Y-152452380D01*
X107642857Y-152452380D01*
X107547619Y-152404761D01*
X107500000Y-152357142D01*
X107452380Y-152261904D01*
X107452380Y-152166666D01*
X107500000Y-152071428D01*
X107547619Y-152023809D01*
X107642857Y-151976190D01*
X107833333Y-151928571D01*
X107928571Y-151880952D01*
X107976190Y-151833333D01*
X108023809Y-151738095D01*
X108023809Y-151642857D01*
X107976190Y-151547619D01*
X107928571Y-151500000D01*
X107833333Y-151452380D01*
X107595238Y-151452380D01*
X107452380Y-151500000D01*
X106833333Y-151452380D02*
X106642857Y-151452380D01*
X106547619Y-151500000D01*
X106452380Y-151595238D01*
X106404761Y-151785714D01*
X106404761Y-152119047D01*
X106452380Y-152309523D01*
X106547619Y-152404761D01*
X106642857Y-152452380D01*
X106833333Y-152452380D01*
X106928571Y-152404761D01*
X107023809Y-152309523D01*
X107071428Y-152119047D01*
X107071428Y-151785714D01*
X107023809Y-151595238D01*
X106928571Y-151500000D01*
X106833333Y-151452380D01*
X105500000Y-152452380D02*
X105976190Y-152452380D01*
X105976190Y-151452380D01*
X105214285Y-152166666D02*
X104738095Y-152166666D01*
X105309523Y-152452380D02*
X104976190Y-151452380D01*
X104642857Y-152452380D01*
X103738095Y-152452380D02*
X104071428Y-151976190D01*
X104309523Y-152452380D02*
X104309523Y-151452380D01*
X103928571Y-151452380D01*
X103833333Y-151500000D01*
X103785714Y-151547619D01*
X103738095Y-151642857D01*
X103738095Y-151785714D01*
X103785714Y-151880952D01*
X103833333Y-151928571D01*
X103928571Y-151976190D01*
X104309523Y-151976190D01*
X102547619Y-152452380D02*
X102547619Y-151452380D01*
X102166666Y-151452380D01*
X102071428Y-151500000D01*
X102023809Y-151547619D01*
X101976190Y-151642857D01*
X101976190Y-151785714D01*
X102023809Y-151880952D01*
X102071428Y-151928571D01*
X102166666Y-151976190D01*
X102547619Y-151976190D01*
X101357142Y-151452380D02*
X101166666Y-151452380D01*
X101071428Y-151500000D01*
X100976190Y-151595238D01*
X100928571Y-151785714D01*
X100928571Y-152119047D01*
X100976190Y-152309523D01*
X101071428Y-152404761D01*
X101166666Y-152452380D01*
X101357142Y-152452380D01*
X101452380Y-152404761D01*
X101547619Y-152309523D01*
X101595238Y-152119047D01*
X101595238Y-151785714D01*
X101547619Y-151595238D01*
X101452380Y-151500000D01*
X101357142Y-151452380D01*
X100547619Y-152404761D02*
X100404761Y-152452380D01*
X100166666Y-152452380D01*
X100071428Y-152404761D01*
X100023809Y-152357142D01*
X99976190Y-152261904D01*
X99976190Y-152166666D01*
X100023809Y-152071428D01*
X100071428Y-152023809D01*
X100166666Y-151976190D01*
X100357142Y-151928571D01*
X100452380Y-151880952D01*
X100500000Y-151833333D01*
X100547619Y-151738095D01*
X100547619Y-151642857D01*
X100500000Y-151547619D01*
X100452380Y-151500000D01*
X100357142Y-151452380D01*
X100119047Y-151452380D01*
X99976190Y-151500000D01*
D11*
%TO.C,C25*%
X203438748Y-102335000D02*
X203961252Y-102335000D01*
X203438748Y-100865000D02*
X203961252Y-100865000D01*
%TO.C,C24*%
X203335000Y-84661252D02*
X203335000Y-84138748D01*
X201865000Y-84661252D02*
X201865000Y-84138748D01*
%TO.C,C23*%
X180838748Y-95435000D02*
X181361252Y-95435000D01*
X180838748Y-93965000D02*
X181361252Y-93965000D01*
%TO.C,C22*%
X180538748Y-78335000D02*
X181061252Y-78335000D01*
X180538748Y-76865000D02*
X181061252Y-76865000D01*
%TO.C,D6*%
X196160000Y-161185000D02*
X190300000Y-161185000D01*
X196160000Y-158015000D02*
X196160000Y-161185000D01*
X190300000Y-158015000D02*
X196160000Y-158015000D01*
%TO.C,D5*%
X179440000Y-158115000D02*
X185300000Y-158115000D01*
X179440000Y-161285000D02*
X179440000Y-158115000D01*
X185300000Y-161285000D02*
X179440000Y-161285000D01*
%TO.C,C2*%
X93738748Y-103265000D02*
X94261252Y-103265000D01*
X93738748Y-104735000D02*
X94261252Y-104735000D01*
%TO.C,D8*%
X108600000Y-126515000D02*
X114460000Y-126515000D01*
X114460000Y-126515000D02*
X114460000Y-129685000D01*
X114460000Y-129685000D02*
X108600000Y-129685000D01*
%TO.C,D1*%
X112750000Y-77665000D02*
X118610000Y-77665000D01*
X118610000Y-77665000D02*
X118610000Y-80835000D01*
X118610000Y-80835000D02*
X112750000Y-80835000D01*
%TO.C,R30*%
X195972936Y-134735000D02*
X196427064Y-134735000D01*
X195972936Y-133265000D02*
X196427064Y-133265000D01*
%TO.C,R29*%
X195972936Y-127435000D02*
X196427064Y-127435000D01*
X195972936Y-125965000D02*
X196427064Y-125965000D01*
%TO.C,R28*%
X210772936Y-131735000D02*
X211227064Y-131735000D01*
X210772936Y-130265000D02*
X211227064Y-130265000D01*
%TO.C,R27*%
X210772936Y-128735000D02*
X211227064Y-128735000D01*
X210772936Y-127265000D02*
X211227064Y-127265000D01*
%TO.C,R26*%
X210772936Y-125735000D02*
X211227064Y-125735000D01*
X210772936Y-124265000D02*
X211227064Y-124265000D01*
%TO.C,R25*%
X210772936Y-122735000D02*
X211227064Y-122735000D01*
X210772936Y-121265000D02*
X211227064Y-121265000D01*
%TO.C,R14*%
X206335000Y-114627064D02*
X206335000Y-114172936D01*
X204865000Y-114627064D02*
X204865000Y-114172936D01*
%TO.C,Q5*%
X210260000Y-112820000D02*
X210260000Y-113750000D01*
X210260000Y-115980000D02*
X210260000Y-115050000D01*
X210260000Y-115980000D02*
X208100000Y-115980000D01*
X210260000Y-112820000D02*
X208800000Y-112820000D01*
%TO.C,U1*%
X96000000Y-101560000D02*
X94050000Y-101560000D01*
X96000000Y-101560000D02*
X97950000Y-101560000D01*
X96000000Y-96440000D02*
X94050000Y-96440000D01*
X96000000Y-96440000D02*
X99450000Y-96440000D01*
%TO.C,R37*%
X101772936Y-77735000D02*
X102227064Y-77735000D01*
X101772936Y-76265000D02*
X102227064Y-76265000D01*
%TO.C,R20*%
X180072936Y-137435000D02*
X180527064Y-137435000D01*
X180072936Y-135965000D02*
X180527064Y-135965000D01*
%TO.C,R13*%
X180172936Y-139935000D02*
X180627064Y-139935000D01*
X180172936Y-138465000D02*
X180627064Y-138465000D01*
%TO.C,R9*%
X114772936Y-83735000D02*
X115227064Y-83735000D01*
X114772936Y-82265000D02*
X115227064Y-82265000D01*
%TO.C,R8*%
X115772936Y-76735000D02*
X116227064Y-76735000D01*
X115772936Y-75265000D02*
X116227064Y-75265000D01*
%TO.C,R6*%
X94095000Y-79687064D02*
X94095000Y-79232936D01*
X92625000Y-79687064D02*
X92625000Y-79232936D01*
%TO.C,R2*%
X114265000Y-165772936D02*
X114265000Y-166227064D01*
X115735000Y-165772936D02*
X115735000Y-166227064D01*
%TO.C,R1*%
X107772936Y-165735000D02*
X108227064Y-165735000D01*
X107772936Y-164265000D02*
X108227064Y-164265000D01*
%TO.C,C20*%
X160238748Y-121035000D02*
X160761252Y-121035000D01*
X160238748Y-119565000D02*
X160761252Y-119565000D01*
%TO.C,C4*%
X92935000Y-86661252D02*
X92935000Y-86138748D01*
X91465000Y-86661252D02*
X91465000Y-86138748D01*
%TO.C,C3*%
X92735000Y-92261252D02*
X92735000Y-91738748D01*
X91265000Y-92261252D02*
X91265000Y-91738748D01*
%TO.C,C1*%
X111265000Y-165738748D02*
X111265000Y-166261252D01*
X112735000Y-165738748D02*
X112735000Y-166261252D01*
%TO.C,C25*%
D10*
X204342857Y-99757142D02*
X204390476Y-99804761D01*
X204533333Y-99852380D01*
X204628571Y-99852380D01*
X204771428Y-99804761D01*
X204866666Y-99709523D01*
X204914285Y-99614285D01*
X204961904Y-99423809D01*
X204961904Y-99280952D01*
X204914285Y-99090476D01*
X204866666Y-98995238D01*
X204771428Y-98900000D01*
X204628571Y-98852380D01*
X204533333Y-98852380D01*
X204390476Y-98900000D01*
X204342857Y-98947619D01*
X203961904Y-98947619D02*
X203914285Y-98900000D01*
X203819047Y-98852380D01*
X203580952Y-98852380D01*
X203485714Y-98900000D01*
X203438095Y-98947619D01*
X203390476Y-99042857D01*
X203390476Y-99138095D01*
X203438095Y-99280952D01*
X204009523Y-99852380D01*
X203390476Y-99852380D01*
X202485714Y-98852380D02*
X202961904Y-98852380D01*
X203009523Y-99328571D01*
X202961904Y-99280952D01*
X202866666Y-99233333D01*
X202628571Y-99233333D01*
X202533333Y-99280952D01*
X202485714Y-99328571D01*
X202438095Y-99423809D01*
X202438095Y-99661904D01*
X202485714Y-99757142D01*
X202533333Y-99804761D01*
X202628571Y-99852380D01*
X202866666Y-99852380D01*
X202961904Y-99804761D01*
X203009523Y-99757142D01*
%TO.C,C24*%
X203042857Y-82057142D02*
X203090476Y-82104761D01*
X203233333Y-82152380D01*
X203328571Y-82152380D01*
X203471428Y-82104761D01*
X203566666Y-82009523D01*
X203614285Y-81914285D01*
X203661904Y-81723809D01*
X203661904Y-81580952D01*
X203614285Y-81390476D01*
X203566666Y-81295238D01*
X203471428Y-81200000D01*
X203328571Y-81152380D01*
X203233333Y-81152380D01*
X203090476Y-81200000D01*
X203042857Y-81247619D01*
X202661904Y-81247619D02*
X202614285Y-81200000D01*
X202519047Y-81152380D01*
X202280952Y-81152380D01*
X202185714Y-81200000D01*
X202138095Y-81247619D01*
X202090476Y-81342857D01*
X202090476Y-81438095D01*
X202138095Y-81580952D01*
X202709523Y-82152380D01*
X202090476Y-82152380D01*
X201233333Y-81485714D02*
X201233333Y-82152380D01*
X201471428Y-81104761D02*
X201709523Y-81819047D01*
X201090476Y-81819047D01*
%TO.C,C23*%
X181542857Y-93457142D02*
X181590476Y-93504761D01*
X181733333Y-93552380D01*
X181828571Y-93552380D01*
X181971428Y-93504761D01*
X182066666Y-93409523D01*
X182114285Y-93314285D01*
X182161904Y-93123809D01*
X182161904Y-92980952D01*
X182114285Y-92790476D01*
X182066666Y-92695238D01*
X181971428Y-92600000D01*
X181828571Y-92552380D01*
X181733333Y-92552380D01*
X181590476Y-92600000D01*
X181542857Y-92647619D01*
X181161904Y-92647619D02*
X181114285Y-92600000D01*
X181019047Y-92552380D01*
X180780952Y-92552380D01*
X180685714Y-92600000D01*
X180638095Y-92647619D01*
X180590476Y-92742857D01*
X180590476Y-92838095D01*
X180638095Y-92980952D01*
X181209523Y-93552380D01*
X180590476Y-93552380D01*
X180257142Y-92552380D02*
X179638095Y-92552380D01*
X179971428Y-92933333D01*
X179828571Y-92933333D01*
X179733333Y-92980952D01*
X179685714Y-93028571D01*
X179638095Y-93123809D01*
X179638095Y-93361904D01*
X179685714Y-93457142D01*
X179733333Y-93504761D01*
X179828571Y-93552380D01*
X180114285Y-93552380D01*
X180209523Y-93504761D01*
X180257142Y-93457142D01*
%TO.C,C22*%
X181342857Y-75857142D02*
X181390476Y-75904761D01*
X181533333Y-75952380D01*
X181628571Y-75952380D01*
X181771428Y-75904761D01*
X181866666Y-75809523D01*
X181914285Y-75714285D01*
X181961904Y-75523809D01*
X181961904Y-75380952D01*
X181914285Y-75190476D01*
X181866666Y-75095238D01*
X181771428Y-75000000D01*
X181628571Y-74952380D01*
X181533333Y-74952380D01*
X181390476Y-75000000D01*
X181342857Y-75047619D01*
X180961904Y-75047619D02*
X180914285Y-75000000D01*
X180819047Y-74952380D01*
X180580952Y-74952380D01*
X180485714Y-75000000D01*
X180438095Y-75047619D01*
X180390476Y-75142857D01*
X180390476Y-75238095D01*
X180438095Y-75380952D01*
X181009523Y-75952380D01*
X180390476Y-75952380D01*
X180009523Y-75047619D02*
X179961904Y-75000000D01*
X179866666Y-74952380D01*
X179628571Y-74952380D01*
X179533333Y-75000000D01*
X179485714Y-75047619D01*
X179438095Y-75142857D01*
X179438095Y-75238095D01*
X179485714Y-75380952D01*
X180057142Y-75952380D01*
X179438095Y-75952380D01*
%TO.C,D6*%
X193538095Y-157772380D02*
X193538095Y-156772380D01*
X193300000Y-156772380D01*
X193157142Y-156820000D01*
X193061904Y-156915238D01*
X193014285Y-157010476D01*
X192966666Y-157200952D01*
X192966666Y-157343809D01*
X193014285Y-157534285D01*
X193061904Y-157629523D01*
X193157142Y-157724761D01*
X193300000Y-157772380D01*
X193538095Y-157772380D01*
X192109523Y-156772380D02*
X192300000Y-156772380D01*
X192395238Y-156820000D01*
X192442857Y-156867619D01*
X192538095Y-157010476D01*
X192585714Y-157200952D01*
X192585714Y-157581904D01*
X192538095Y-157677142D01*
X192490476Y-157724761D01*
X192395238Y-157772380D01*
X192204761Y-157772380D01*
X192109523Y-157724761D01*
X192061904Y-157677142D01*
X192014285Y-157581904D01*
X192014285Y-157343809D01*
X192061904Y-157248571D01*
X192109523Y-157200952D01*
X192204761Y-157153333D01*
X192395238Y-157153333D01*
X192490476Y-157200952D01*
X192538095Y-157248571D01*
X192585714Y-157343809D01*
%TO.C,D5*%
X183638095Y-157802380D02*
X183638095Y-156802380D01*
X183400000Y-156802380D01*
X183257142Y-156850000D01*
X183161904Y-156945238D01*
X183114285Y-157040476D01*
X183066666Y-157230952D01*
X183066666Y-157373809D01*
X183114285Y-157564285D01*
X183161904Y-157659523D01*
X183257142Y-157754761D01*
X183400000Y-157802380D01*
X183638095Y-157802380D01*
X182161904Y-156802380D02*
X182638095Y-156802380D01*
X182685714Y-157278571D01*
X182638095Y-157230952D01*
X182542857Y-157183333D01*
X182304761Y-157183333D01*
X182209523Y-157230952D01*
X182161904Y-157278571D01*
X182114285Y-157373809D01*
X182114285Y-157611904D01*
X182161904Y-157707142D01*
X182209523Y-157754761D01*
X182304761Y-157802380D01*
X182542857Y-157802380D01*
X182638095Y-157754761D01*
X182685714Y-157707142D01*
%TO.C,C2*%
X94166666Y-106037142D02*
X94214285Y-106084761D01*
X94357142Y-106132380D01*
X94452380Y-106132380D01*
X94595238Y-106084761D01*
X94690476Y-105989523D01*
X94738095Y-105894285D01*
X94785714Y-105703809D01*
X94785714Y-105560952D01*
X94738095Y-105370476D01*
X94690476Y-105275238D01*
X94595238Y-105180000D01*
X94452380Y-105132380D01*
X94357142Y-105132380D01*
X94214285Y-105180000D01*
X94166666Y-105227619D01*
X93785714Y-105227619D02*
X93738095Y-105180000D01*
X93642857Y-105132380D01*
X93404761Y-105132380D01*
X93309523Y-105180000D01*
X93261904Y-105227619D01*
X93214285Y-105322857D01*
X93214285Y-105418095D01*
X93261904Y-105560952D01*
X93833333Y-106132380D01*
X93214285Y-106132380D01*
%TO.C,D8*%
X111838095Y-126272380D02*
X111838095Y-125272380D01*
X111600000Y-125272380D01*
X111457142Y-125320000D01*
X111361904Y-125415238D01*
X111314285Y-125510476D01*
X111266666Y-125700952D01*
X111266666Y-125843809D01*
X111314285Y-126034285D01*
X111361904Y-126129523D01*
X111457142Y-126224761D01*
X111600000Y-126272380D01*
X111838095Y-126272380D01*
X110695238Y-125700952D02*
X110790476Y-125653333D01*
X110838095Y-125605714D01*
X110885714Y-125510476D01*
X110885714Y-125462857D01*
X110838095Y-125367619D01*
X110790476Y-125320000D01*
X110695238Y-125272380D01*
X110504761Y-125272380D01*
X110409523Y-125320000D01*
X110361904Y-125367619D01*
X110314285Y-125462857D01*
X110314285Y-125510476D01*
X110361904Y-125605714D01*
X110409523Y-125653333D01*
X110504761Y-125700952D01*
X110695238Y-125700952D01*
X110790476Y-125748571D01*
X110838095Y-125796190D01*
X110885714Y-125891428D01*
X110885714Y-126081904D01*
X110838095Y-126177142D01*
X110790476Y-126224761D01*
X110695238Y-126272380D01*
X110504761Y-126272380D01*
X110409523Y-126224761D01*
X110361904Y-126177142D01*
X110314285Y-126081904D01*
X110314285Y-125891428D01*
X110361904Y-125796190D01*
X110409523Y-125748571D01*
X110504761Y-125700952D01*
%TO.C,D1*%
X120338095Y-79752380D02*
X120338095Y-78752380D01*
X120100000Y-78752380D01*
X119957142Y-78800000D01*
X119861904Y-78895238D01*
X119814285Y-78990476D01*
X119766666Y-79180952D01*
X119766666Y-79323809D01*
X119814285Y-79514285D01*
X119861904Y-79609523D01*
X119957142Y-79704761D01*
X120100000Y-79752380D01*
X120338095Y-79752380D01*
X118814285Y-79752380D02*
X119385714Y-79752380D01*
X119100000Y-79752380D02*
X119100000Y-78752380D01*
X119195238Y-78895238D01*
X119290476Y-78990476D01*
X119385714Y-79038095D01*
%TO.C,R30*%
X196742857Y-136252380D02*
X197076190Y-135776190D01*
X197314285Y-136252380D02*
X197314285Y-135252380D01*
X196933333Y-135252380D01*
X196838095Y-135300000D01*
X196790476Y-135347619D01*
X196742857Y-135442857D01*
X196742857Y-135585714D01*
X196790476Y-135680952D01*
X196838095Y-135728571D01*
X196933333Y-135776190D01*
X197314285Y-135776190D01*
X196409523Y-135252380D02*
X195790476Y-135252380D01*
X196123809Y-135633333D01*
X195980952Y-135633333D01*
X195885714Y-135680952D01*
X195838095Y-135728571D01*
X195790476Y-135823809D01*
X195790476Y-136061904D01*
X195838095Y-136157142D01*
X195885714Y-136204761D01*
X195980952Y-136252380D01*
X196266666Y-136252380D01*
X196361904Y-136204761D01*
X196409523Y-136157142D01*
X195171428Y-135252380D02*
X195076190Y-135252380D01*
X194980952Y-135300000D01*
X194933333Y-135347619D01*
X194885714Y-135442857D01*
X194838095Y-135633333D01*
X194838095Y-135871428D01*
X194885714Y-136061904D01*
X194933333Y-136157142D01*
X194980952Y-136204761D01*
X195076190Y-136252380D01*
X195171428Y-136252380D01*
X195266666Y-136204761D01*
X195314285Y-136157142D01*
X195361904Y-136061904D01*
X195409523Y-135871428D01*
X195409523Y-135633333D01*
X195361904Y-135442857D01*
X195314285Y-135347619D01*
X195266666Y-135300000D01*
X195171428Y-135252380D01*
%TO.C,R29*%
X196842857Y-129252380D02*
X197176190Y-128776190D01*
X197414285Y-129252380D02*
X197414285Y-128252380D01*
X197033333Y-128252380D01*
X196938095Y-128300000D01*
X196890476Y-128347619D01*
X196842857Y-128442857D01*
X196842857Y-128585714D01*
X196890476Y-128680952D01*
X196938095Y-128728571D01*
X197033333Y-128776190D01*
X197414285Y-128776190D01*
X196461904Y-128347619D02*
X196414285Y-128300000D01*
X196319047Y-128252380D01*
X196080952Y-128252380D01*
X195985714Y-128300000D01*
X195938095Y-128347619D01*
X195890476Y-128442857D01*
X195890476Y-128538095D01*
X195938095Y-128680952D01*
X196509523Y-129252380D01*
X195890476Y-129252380D01*
X195414285Y-129252380D02*
X195223809Y-129252380D01*
X195128571Y-129204761D01*
X195080952Y-129157142D01*
X194985714Y-129014285D01*
X194938095Y-128823809D01*
X194938095Y-128442857D01*
X194985714Y-128347619D01*
X195033333Y-128300000D01*
X195128571Y-128252380D01*
X195319047Y-128252380D01*
X195414285Y-128300000D01*
X195461904Y-128347619D01*
X195509523Y-128442857D01*
X195509523Y-128680952D01*
X195461904Y-128776190D01*
X195414285Y-128823809D01*
X195319047Y-128871428D01*
X195128571Y-128871428D01*
X195033333Y-128823809D01*
X194985714Y-128776190D01*
X194938095Y-128680952D01*
%TO.C,R28*%
X211642857Y-133102380D02*
X211976190Y-132626190D01*
X212214285Y-133102380D02*
X212214285Y-132102380D01*
X211833333Y-132102380D01*
X211738095Y-132150000D01*
X211690476Y-132197619D01*
X211642857Y-132292857D01*
X211642857Y-132435714D01*
X211690476Y-132530952D01*
X211738095Y-132578571D01*
X211833333Y-132626190D01*
X212214285Y-132626190D01*
X211261904Y-132197619D02*
X211214285Y-132150000D01*
X211119047Y-132102380D01*
X210880952Y-132102380D01*
X210785714Y-132150000D01*
X210738095Y-132197619D01*
X210690476Y-132292857D01*
X210690476Y-132388095D01*
X210738095Y-132530952D01*
X211309523Y-133102380D01*
X210690476Y-133102380D01*
X210119047Y-132530952D02*
X210214285Y-132483333D01*
X210261904Y-132435714D01*
X210309523Y-132340476D01*
X210309523Y-132292857D01*
X210261904Y-132197619D01*
X210214285Y-132150000D01*
X210119047Y-132102380D01*
X209928571Y-132102380D01*
X209833333Y-132150000D01*
X209785714Y-132197619D01*
X209738095Y-132292857D01*
X209738095Y-132340476D01*
X209785714Y-132435714D01*
X209833333Y-132483333D01*
X209928571Y-132530952D01*
X210119047Y-132530952D01*
X210214285Y-132578571D01*
X210261904Y-132626190D01*
X210309523Y-132721428D01*
X210309523Y-132911904D01*
X210261904Y-133007142D01*
X210214285Y-133054761D01*
X210119047Y-133102380D01*
X209928571Y-133102380D01*
X209833333Y-133054761D01*
X209785714Y-133007142D01*
X209738095Y-132911904D01*
X209738095Y-132721428D01*
X209785714Y-132626190D01*
X209833333Y-132578571D01*
X209928571Y-132530952D01*
%TO.C,R27*%
X211642857Y-130102380D02*
X211976190Y-129626190D01*
X212214285Y-130102380D02*
X212214285Y-129102380D01*
X211833333Y-129102380D01*
X211738095Y-129150000D01*
X211690476Y-129197619D01*
X211642857Y-129292857D01*
X211642857Y-129435714D01*
X211690476Y-129530952D01*
X211738095Y-129578571D01*
X211833333Y-129626190D01*
X212214285Y-129626190D01*
X211261904Y-129197619D02*
X211214285Y-129150000D01*
X211119047Y-129102380D01*
X210880952Y-129102380D01*
X210785714Y-129150000D01*
X210738095Y-129197619D01*
X210690476Y-129292857D01*
X210690476Y-129388095D01*
X210738095Y-129530952D01*
X211309523Y-130102380D01*
X210690476Y-130102380D01*
X210357142Y-129102380D02*
X209690476Y-129102380D01*
X210119047Y-130102380D01*
%TO.C,R26*%
X211642857Y-127102380D02*
X211976190Y-126626190D01*
X212214285Y-127102380D02*
X212214285Y-126102380D01*
X211833333Y-126102380D01*
X211738095Y-126150000D01*
X211690476Y-126197619D01*
X211642857Y-126292857D01*
X211642857Y-126435714D01*
X211690476Y-126530952D01*
X211738095Y-126578571D01*
X211833333Y-126626190D01*
X212214285Y-126626190D01*
X211261904Y-126197619D02*
X211214285Y-126150000D01*
X211119047Y-126102380D01*
X210880952Y-126102380D01*
X210785714Y-126150000D01*
X210738095Y-126197619D01*
X210690476Y-126292857D01*
X210690476Y-126388095D01*
X210738095Y-126530952D01*
X211309523Y-127102380D01*
X210690476Y-127102380D01*
X209833333Y-126102380D02*
X210023809Y-126102380D01*
X210119047Y-126150000D01*
X210166666Y-126197619D01*
X210261904Y-126340476D01*
X210309523Y-126530952D01*
X210309523Y-126911904D01*
X210261904Y-127007142D01*
X210214285Y-127054761D01*
X210119047Y-127102380D01*
X209928571Y-127102380D01*
X209833333Y-127054761D01*
X209785714Y-127007142D01*
X209738095Y-126911904D01*
X209738095Y-126673809D01*
X209785714Y-126578571D01*
X209833333Y-126530952D01*
X209928571Y-126483333D01*
X210119047Y-126483333D01*
X210214285Y-126530952D01*
X210261904Y-126578571D01*
X210309523Y-126673809D01*
%TO.C,R25*%
X211642857Y-124102380D02*
X211976190Y-123626190D01*
X212214285Y-124102380D02*
X212214285Y-123102380D01*
X211833333Y-123102380D01*
X211738095Y-123150000D01*
X211690476Y-123197619D01*
X211642857Y-123292857D01*
X211642857Y-123435714D01*
X211690476Y-123530952D01*
X211738095Y-123578571D01*
X211833333Y-123626190D01*
X212214285Y-123626190D01*
X211261904Y-123197619D02*
X211214285Y-123150000D01*
X211119047Y-123102380D01*
X210880952Y-123102380D01*
X210785714Y-123150000D01*
X210738095Y-123197619D01*
X210690476Y-123292857D01*
X210690476Y-123388095D01*
X210738095Y-123530952D01*
X211309523Y-124102380D01*
X210690476Y-124102380D01*
X209785714Y-123102380D02*
X210261904Y-123102380D01*
X210309523Y-123578571D01*
X210261904Y-123530952D01*
X210166666Y-123483333D01*
X209928571Y-123483333D01*
X209833333Y-123530952D01*
X209785714Y-123578571D01*
X209738095Y-123673809D01*
X209738095Y-123911904D01*
X209785714Y-124007142D01*
X209833333Y-124054761D01*
X209928571Y-124102380D01*
X210166666Y-124102380D01*
X210261904Y-124054761D01*
X210309523Y-124007142D01*
%TO.C,R14*%
X205892857Y-117702380D02*
X206226190Y-117226190D01*
X206464285Y-117702380D02*
X206464285Y-116702380D01*
X206083333Y-116702380D01*
X205988095Y-116750000D01*
X205940476Y-116797619D01*
X205892857Y-116892857D01*
X205892857Y-117035714D01*
X205940476Y-117130952D01*
X205988095Y-117178571D01*
X206083333Y-117226190D01*
X206464285Y-117226190D01*
X204940476Y-117702380D02*
X205511904Y-117702380D01*
X205226190Y-117702380D02*
X205226190Y-116702380D01*
X205321428Y-116845238D01*
X205416666Y-116940476D01*
X205511904Y-116988095D01*
X204083333Y-117035714D02*
X204083333Y-117702380D01*
X204321428Y-116654761D02*
X204559523Y-117369047D01*
X203940476Y-117369047D01*
%TO.C,Q5*%
X209645238Y-117647619D02*
X209740476Y-117600000D01*
X209835714Y-117504761D01*
X209978571Y-117361904D01*
X210073809Y-117314285D01*
X210169047Y-117314285D01*
X210121428Y-117552380D02*
X210216666Y-117504761D01*
X210311904Y-117409523D01*
X210359523Y-117219047D01*
X210359523Y-116885714D01*
X210311904Y-116695238D01*
X210216666Y-116600000D01*
X210121428Y-116552380D01*
X209930952Y-116552380D01*
X209835714Y-116600000D01*
X209740476Y-116695238D01*
X209692857Y-116885714D01*
X209692857Y-117219047D01*
X209740476Y-117409523D01*
X209835714Y-117504761D01*
X209930952Y-117552380D01*
X210121428Y-117552380D01*
X208788095Y-116552380D02*
X209264285Y-116552380D01*
X209311904Y-117028571D01*
X209264285Y-116980952D01*
X209169047Y-116933333D01*
X208930952Y-116933333D01*
X208835714Y-116980952D01*
X208788095Y-117028571D01*
X208740476Y-117123809D01*
X208740476Y-117361904D01*
X208788095Y-117457142D01*
X208835714Y-117504761D01*
X208930952Y-117552380D01*
X209169047Y-117552380D01*
X209264285Y-117504761D01*
X209311904Y-117457142D01*
%TO.C,U1*%
X96761904Y-95052380D02*
X96761904Y-95861904D01*
X96714285Y-95957142D01*
X96666666Y-96004761D01*
X96571428Y-96052380D01*
X96380952Y-96052380D01*
X96285714Y-96004761D01*
X96238095Y-95957142D01*
X96190476Y-95861904D01*
X96190476Y-95052380D01*
X95190476Y-96052380D02*
X95761904Y-96052380D01*
X95476190Y-96052380D02*
X95476190Y-95052380D01*
X95571428Y-95195238D01*
X95666666Y-95290476D01*
X95761904Y-95338095D01*
%TO.C,R37*%
X102642857Y-79102380D02*
X102976190Y-78626190D01*
X103214285Y-79102380D02*
X103214285Y-78102380D01*
X102833333Y-78102380D01*
X102738095Y-78150000D01*
X102690476Y-78197619D01*
X102642857Y-78292857D01*
X102642857Y-78435714D01*
X102690476Y-78530952D01*
X102738095Y-78578571D01*
X102833333Y-78626190D01*
X103214285Y-78626190D01*
X102309523Y-78102380D02*
X101690476Y-78102380D01*
X102023809Y-78483333D01*
X101880952Y-78483333D01*
X101785714Y-78530952D01*
X101738095Y-78578571D01*
X101690476Y-78673809D01*
X101690476Y-78911904D01*
X101738095Y-79007142D01*
X101785714Y-79054761D01*
X101880952Y-79102380D01*
X102166666Y-79102380D01*
X102261904Y-79054761D01*
X102309523Y-79007142D01*
X101357142Y-78102380D02*
X100690476Y-78102380D01*
X101119047Y-79102380D01*
%TO.C,R20*%
X180942857Y-135352380D02*
X181276190Y-134876190D01*
X181514285Y-135352380D02*
X181514285Y-134352380D01*
X181133333Y-134352380D01*
X181038095Y-134400000D01*
X180990476Y-134447619D01*
X180942857Y-134542857D01*
X180942857Y-134685714D01*
X180990476Y-134780952D01*
X181038095Y-134828571D01*
X181133333Y-134876190D01*
X181514285Y-134876190D01*
X180561904Y-134447619D02*
X180514285Y-134400000D01*
X180419047Y-134352380D01*
X180180952Y-134352380D01*
X180085714Y-134400000D01*
X180038095Y-134447619D01*
X179990476Y-134542857D01*
X179990476Y-134638095D01*
X180038095Y-134780952D01*
X180609523Y-135352380D01*
X179990476Y-135352380D01*
X179371428Y-134352380D02*
X179276190Y-134352380D01*
X179180952Y-134400000D01*
X179133333Y-134447619D01*
X179085714Y-134542857D01*
X179038095Y-134733333D01*
X179038095Y-134971428D01*
X179085714Y-135161904D01*
X179133333Y-135257142D01*
X179180952Y-135304761D01*
X179276190Y-135352380D01*
X179371428Y-135352380D01*
X179466666Y-135304761D01*
X179514285Y-135257142D01*
X179561904Y-135161904D01*
X179609523Y-134971428D01*
X179609523Y-134733333D01*
X179561904Y-134542857D01*
X179514285Y-134447619D01*
X179466666Y-134400000D01*
X179371428Y-134352380D01*
%TO.C,R13*%
X181042857Y-141552380D02*
X181376190Y-141076190D01*
X181614285Y-141552380D02*
X181614285Y-140552380D01*
X181233333Y-140552380D01*
X181138095Y-140600000D01*
X181090476Y-140647619D01*
X181042857Y-140742857D01*
X181042857Y-140885714D01*
X181090476Y-140980952D01*
X181138095Y-141028571D01*
X181233333Y-141076190D01*
X181614285Y-141076190D01*
X180090476Y-141552380D02*
X180661904Y-141552380D01*
X180376190Y-141552380D02*
X180376190Y-140552380D01*
X180471428Y-140695238D01*
X180566666Y-140790476D01*
X180661904Y-140838095D01*
X179757142Y-140552380D02*
X179138095Y-140552380D01*
X179471428Y-140933333D01*
X179328571Y-140933333D01*
X179233333Y-140980952D01*
X179185714Y-141028571D01*
X179138095Y-141123809D01*
X179138095Y-141361904D01*
X179185714Y-141457142D01*
X179233333Y-141504761D01*
X179328571Y-141552380D01*
X179614285Y-141552380D01*
X179709523Y-141504761D01*
X179757142Y-141457142D01*
%TO.C,R9*%
X115166666Y-85102380D02*
X115500000Y-84626190D01*
X115738095Y-85102380D02*
X115738095Y-84102380D01*
X115357142Y-84102380D01*
X115261904Y-84150000D01*
X115214285Y-84197619D01*
X115166666Y-84292857D01*
X115166666Y-84435714D01*
X115214285Y-84530952D01*
X115261904Y-84578571D01*
X115357142Y-84626190D01*
X115738095Y-84626190D01*
X114690476Y-85102380D02*
X114500000Y-85102380D01*
X114404761Y-85054761D01*
X114357142Y-85007142D01*
X114261904Y-84864285D01*
X114214285Y-84673809D01*
X114214285Y-84292857D01*
X114261904Y-84197619D01*
X114309523Y-84150000D01*
X114404761Y-84102380D01*
X114595238Y-84102380D01*
X114690476Y-84150000D01*
X114738095Y-84197619D01*
X114785714Y-84292857D01*
X114785714Y-84530952D01*
X114738095Y-84626190D01*
X114690476Y-84673809D01*
X114595238Y-84721428D01*
X114404761Y-84721428D01*
X114309523Y-84673809D01*
X114261904Y-84626190D01*
X114214285Y-84530952D01*
%TO.C,R8*%
X112866666Y-76852380D02*
X113200000Y-76376190D01*
X113438095Y-76852380D02*
X113438095Y-75852380D01*
X113057142Y-75852380D01*
X112961904Y-75900000D01*
X112914285Y-75947619D01*
X112866666Y-76042857D01*
X112866666Y-76185714D01*
X112914285Y-76280952D01*
X112961904Y-76328571D01*
X113057142Y-76376190D01*
X113438095Y-76376190D01*
X112295238Y-76280952D02*
X112390476Y-76233333D01*
X112438095Y-76185714D01*
X112485714Y-76090476D01*
X112485714Y-76042857D01*
X112438095Y-75947619D01*
X112390476Y-75900000D01*
X112295238Y-75852380D01*
X112104761Y-75852380D01*
X112009523Y-75900000D01*
X111961904Y-75947619D01*
X111914285Y-76042857D01*
X111914285Y-76090476D01*
X111961904Y-76185714D01*
X112009523Y-76233333D01*
X112104761Y-76280952D01*
X112295238Y-76280952D01*
X112390476Y-76328571D01*
X112438095Y-76376190D01*
X112485714Y-76471428D01*
X112485714Y-76661904D01*
X112438095Y-76757142D01*
X112390476Y-76804761D01*
X112295238Y-76852380D01*
X112104761Y-76852380D01*
X112009523Y-76804761D01*
X111961904Y-76757142D01*
X111914285Y-76661904D01*
X111914285Y-76471428D01*
X111961904Y-76376190D01*
X112009523Y-76328571D01*
X112104761Y-76280952D01*
%TO.C,R6*%
X93766666Y-76852380D02*
X94100000Y-76376190D01*
X94338095Y-76852380D02*
X94338095Y-75852380D01*
X93957142Y-75852380D01*
X93861904Y-75900000D01*
X93814285Y-75947619D01*
X93766666Y-76042857D01*
X93766666Y-76185714D01*
X93814285Y-76280952D01*
X93861904Y-76328571D01*
X93957142Y-76376190D01*
X94338095Y-76376190D01*
X92909523Y-75852380D02*
X93100000Y-75852380D01*
X93195238Y-75900000D01*
X93242857Y-75947619D01*
X93338095Y-76090476D01*
X93385714Y-76280952D01*
X93385714Y-76661904D01*
X93338095Y-76757142D01*
X93290476Y-76804761D01*
X93195238Y-76852380D01*
X93004761Y-76852380D01*
X92909523Y-76804761D01*
X92861904Y-76757142D01*
X92814285Y-76661904D01*
X92814285Y-76423809D01*
X92861904Y-76328571D01*
X92909523Y-76280952D01*
X93004761Y-76233333D01*
X93195238Y-76233333D01*
X93290476Y-76280952D01*
X93338095Y-76328571D01*
X93385714Y-76423809D01*
%TO.C,R2*%
X115166666Y-169452380D02*
X115500000Y-168976190D01*
X115738095Y-169452380D02*
X115738095Y-168452380D01*
X115357142Y-168452380D01*
X115261904Y-168500000D01*
X115214285Y-168547619D01*
X115166666Y-168642857D01*
X115166666Y-168785714D01*
X115214285Y-168880952D01*
X115261904Y-168928571D01*
X115357142Y-168976190D01*
X115738095Y-168976190D01*
X114785714Y-168547619D02*
X114738095Y-168500000D01*
X114642857Y-168452380D01*
X114404761Y-168452380D01*
X114309523Y-168500000D01*
X114261904Y-168547619D01*
X114214285Y-168642857D01*
X114214285Y-168738095D01*
X114261904Y-168880952D01*
X114833333Y-169452380D01*
X114214285Y-169452380D01*
%TO.C,R1*%
X108166666Y-167452380D02*
X108500000Y-166976190D01*
X108738095Y-167452380D02*
X108738095Y-166452380D01*
X108357142Y-166452380D01*
X108261904Y-166500000D01*
X108214285Y-166547619D01*
X108166666Y-166642857D01*
X108166666Y-166785714D01*
X108214285Y-166880952D01*
X108261904Y-166928571D01*
X108357142Y-166976190D01*
X108738095Y-166976190D01*
X107214285Y-167452380D02*
X107785714Y-167452380D01*
X107500000Y-167452380D02*
X107500000Y-166452380D01*
X107595238Y-166595238D01*
X107690476Y-166690476D01*
X107785714Y-166738095D01*
%TO.C,C20*%
X161242857Y-118657142D02*
X161290476Y-118704761D01*
X161433333Y-118752380D01*
X161528571Y-118752380D01*
X161671428Y-118704761D01*
X161766666Y-118609523D01*
X161814285Y-118514285D01*
X161861904Y-118323809D01*
X161861904Y-118180952D01*
X161814285Y-117990476D01*
X161766666Y-117895238D01*
X161671428Y-117800000D01*
X161528571Y-117752380D01*
X161433333Y-117752380D01*
X161290476Y-117800000D01*
X161242857Y-117847619D01*
X160861904Y-117847619D02*
X160814285Y-117800000D01*
X160719047Y-117752380D01*
X160480952Y-117752380D01*
X160385714Y-117800000D01*
X160338095Y-117847619D01*
X160290476Y-117942857D01*
X160290476Y-118038095D01*
X160338095Y-118180952D01*
X160909523Y-118752380D01*
X160290476Y-118752380D01*
X159671428Y-117752380D02*
X159576190Y-117752380D01*
X159480952Y-117800000D01*
X159433333Y-117847619D01*
X159385714Y-117942857D01*
X159338095Y-118133333D01*
X159338095Y-118371428D01*
X159385714Y-118561904D01*
X159433333Y-118657142D01*
X159480952Y-118704761D01*
X159576190Y-118752380D01*
X159671428Y-118752380D01*
X159766666Y-118704761D01*
X159814285Y-118657142D01*
X159861904Y-118561904D01*
X159909523Y-118371428D01*
X159909523Y-118133333D01*
X159861904Y-117942857D01*
X159814285Y-117847619D01*
X159766666Y-117800000D01*
X159671428Y-117752380D01*
%TO.C,C4*%
X92266666Y-83757142D02*
X92314285Y-83804761D01*
X92457142Y-83852380D01*
X92552380Y-83852380D01*
X92695238Y-83804761D01*
X92790476Y-83709523D01*
X92838095Y-83614285D01*
X92885714Y-83423809D01*
X92885714Y-83280952D01*
X92838095Y-83090476D01*
X92790476Y-82995238D01*
X92695238Y-82900000D01*
X92552380Y-82852380D01*
X92457142Y-82852380D01*
X92314285Y-82900000D01*
X92266666Y-82947619D01*
X91409523Y-83185714D02*
X91409523Y-83852380D01*
X91647619Y-82804761D02*
X91885714Y-83519047D01*
X91266666Y-83519047D01*
%TO.C,C3*%
X92266666Y-89557142D02*
X92314285Y-89604761D01*
X92457142Y-89652380D01*
X92552380Y-89652380D01*
X92695238Y-89604761D01*
X92790476Y-89509523D01*
X92838095Y-89414285D01*
X92885714Y-89223809D01*
X92885714Y-89080952D01*
X92838095Y-88890476D01*
X92790476Y-88795238D01*
X92695238Y-88700000D01*
X92552380Y-88652380D01*
X92457142Y-88652380D01*
X92314285Y-88700000D01*
X92266666Y-88747619D01*
X91933333Y-88652380D02*
X91314285Y-88652380D01*
X91647619Y-89033333D01*
X91504761Y-89033333D01*
X91409523Y-89080952D01*
X91361904Y-89128571D01*
X91314285Y-89223809D01*
X91314285Y-89461904D01*
X91361904Y-89557142D01*
X91409523Y-89604761D01*
X91504761Y-89652380D01*
X91790476Y-89652380D01*
X91885714Y-89604761D01*
X91933333Y-89557142D01*
%TO.C,C1*%
X112166666Y-169357142D02*
X112214285Y-169404761D01*
X112357142Y-169452380D01*
X112452380Y-169452380D01*
X112595238Y-169404761D01*
X112690476Y-169309523D01*
X112738095Y-169214285D01*
X112785714Y-169023809D01*
X112785714Y-168880952D01*
X112738095Y-168690476D01*
X112690476Y-168595238D01*
X112595238Y-168500000D01*
X112452380Y-168452380D01*
X112357142Y-168452380D01*
X112214285Y-168500000D01*
X112166666Y-168547619D01*
X111214285Y-169452380D02*
X111785714Y-169452380D01*
X111500000Y-169452380D02*
X111500000Y-168452380D01*
X111595238Y-168595238D01*
X111690476Y-168690476D01*
X111785714Y-168738095D01*
%TD*%
M02*
