M48
; DRILL file {KiCad (5.1.10)-1} date 09/19/22 20:48:13
; FORMAT={-:-/ absolute / inch / decimal}
; #@! TF.CreationDate,2022-09-19T20:48:13-07:00
; #@! TF.GenerationSoftware,Kicad,Pcbnew,(5.1.10)-1
; #@! TF.FileFunction,Plated,1,2,PTH
FMAT,2
INCH
T1C0.0157
T2C0.0300
T3C0.0315
T4C0.0374
T5C0.0394
T6C0.0433
T7C0.0472
T8C0.0700
T9C0.0709
T10C0.0787
%
G90
G05
T1
X3.6102Y-3.7913
X3.685Y-3.0236
X3.685Y-3.7717
X3.7992Y-3.9724
X4.0551Y-3.5699
X4.0551Y-3.6339
X4.3858Y-3.4409
X4.3858Y-3.4843
X4.3858Y-3.5276
X4.3937Y-3.8189
X4.4055Y-5.0433
X4.4409Y-3.8189
X4.4882Y-3.8189
X4.5669Y-3.4843
X4.5768Y-6.4469
X4.6496Y-3.2677
X5.6803Y-2.8343
X5.8189Y-5.4213
X5.8268Y-4.185
X5.8285Y-3.2419
X6.0394Y-5.1614
X6.0394Y-5.9705
X6.0669Y-4.8386
X6.1654Y-4.0039
X6.1654Y-4.4252
X6.2362Y-3.7323
X6.3504Y-4.3031
X6.4094Y-4.2638
X6.4252Y-4.4724
X6.4606Y-4.0079
X6.4764Y-4.5354
X6.5512Y-4.1398
X6.5512Y-4.6417
X6.6181Y-4.5827
X6.6299Y-3.4843
X6.685Y-4.7913
X6.7047Y-3.7323
X6.7795Y-3.8858
X6.9134Y-2.9724
X7.3646Y-3.1512
X7.3646Y-3.8291
X7.3937Y-2.9724
X7.5512Y-4.9409
X7.5709Y-3.1496
X7.5827Y-3.8268
X7.7087Y-3.7795
X7.7126Y-3.1142
X7.7244Y-3.437
X7.7283Y-4.0945
X7.7402Y-6.2835
X7.937Y-2.9724
X8.0896Y-6.0285
X8.2402Y-4.3425
X8.2953Y-5.5827
X8.3425Y-6.1969
X8.3701Y-2.9764
X8.6339Y-3.3543
T2
X6.8371Y-3.1047
X6.8371Y-3.5447
X6.841Y-3.7346
X6.841Y-4.1746
X6.9291Y-4.8819
X6.9291Y-4.9819
X6.9291Y-5.0819
X6.9291Y-5.1819
X6.9291Y-5.2819
X6.9291Y-5.3819
X6.9291Y-5.4819
X6.9291Y-5.5819
X6.9291Y-5.6819
X6.9291Y-5.7819
X6.9291Y-5.8819
X6.9291Y-5.9819
X6.9291Y-6.0819
X6.9291Y-6.1819
X6.9291Y-6.2819
X7.9291Y-4.8819
X7.9291Y-4.9819
X7.9291Y-5.0819
X7.9291Y-5.1819
X7.9291Y-5.2819
X7.9291Y-5.3819
X7.9291Y-5.4819
X7.9291Y-5.5819
X7.9291Y-5.6819
X7.9291Y-5.7819
X7.9291Y-5.8819
X7.9291Y-5.9819
X7.9291Y-6.0819
X7.9291Y-6.1819
X7.9291Y-6.2819
X8.3971Y-3.1047
X8.3971Y-3.5447
X8.401Y-3.7346
X8.401Y-4.1746
T3
X3.7795Y-3.3579
X3.7795Y-3.4579
X3.7795Y-3.5579
X3.7795Y-3.6579
X7.0748Y-3.1614
X7.0748Y-3.2598
X7.0787Y-3.8346
X7.0787Y-3.9331
X7.9764Y-3.4606
X7.9803Y-4.1063
X8.0748Y-3.4606
X8.0787Y-4.1063
T4
X6.2717Y-4.9409
X6.2717Y-5.0394
X6.2717Y-5.1378
X6.2717Y-5.2362
X6.2717Y-5.3346
X6.2717Y-5.4331
X6.2717Y-5.5315
X6.2717Y-5.6299
X6.2717Y-5.7283
X6.2717Y-5.8268
X8.5827Y-4.8031
X8.5827Y-4.9016
X8.5827Y-5.0
X8.5827Y-5.0984
X8.5827Y-5.1969
X8.5827Y-5.2953
X8.5827Y-5.3937
X8.5827Y-5.4921
X8.5906Y-5.7953
X8.5906Y-5.8937
X8.5906Y-5.9921
X8.5906Y-6.0906
X8.5906Y-6.189
T5
X3.6654Y-4.3504
X3.6654Y-4.4488
X5.9331Y-3.0236
X6.0315Y-3.0236
X8.5827Y-4.4055
X8.5827Y-4.5039
T6
X3.9764Y-2.874
X4.0764Y-2.874
X4.1764Y-2.874
X4.5669Y-2.874
X4.6669Y-2.874
X4.7669Y-2.874
X5.1575Y-2.874
X5.2575Y-2.874
X5.3575Y-2.874
T7
X4.2126Y-4.6457
X4.5079Y-4.6457
X5.2756Y-4.6457
X5.5709Y-4.6457
T8
X3.8486Y-5.8169
X3.8504Y-5.6713
X3.8525Y-5.502
X3.8543Y-5.3563
X5.1988Y-5.8209
X5.2006Y-5.6752
X5.2028Y-5.5059
X5.2046Y-5.3602
T9
X4.9213Y-3.189
X4.9213Y-3.689
T10
X4.4587Y-6.2205
X4.8327Y-6.2205
X5.2067Y-6.2205
X5.5807Y-6.2205
T0
M30
