%TF.GenerationSoftware,KiCad,Pcbnew,(5.1.10)-1*%
%TF.CreationDate,2022-09-19T20:48:06-07:00*%
%TF.ProjectId,MPPT_1KW_ESP32_ggmV3,4d505054-5f31-44b5-975f-45535033325f,rev?*%
%TF.SameCoordinates,Original*%
%TF.FileFunction,Paste,Top*%
%TF.FilePolarity,Positive*%
%FSLAX46Y46*%
G04 Gerber Fmt 4.6, Leading zero omitted, Abs format (unit mm)*
G04 Created by KiCad (PCBNEW (5.1.10)-1) date 2022-09-19 20:48:06*
%MOMM*%
%LPD*%
G01*
G04 APERTURE LIST*
%ADD10R,2.750000X3.050000*%
%ADD11R,0.800000X2.200000*%
%ADD12R,5.900000X2.450000*%
%ADD13R,0.900000X0.800000*%
%ADD14R,1.500000X2.000000*%
%ADD15R,3.800000X2.000000*%
G04 APERTURE END LIST*
%TO.C,D4*%
G36*
G01*
X151225000Y-93724999D02*
X151225000Y-95875001D01*
G75*
G02*
X150975001Y-96125000I-249999J0D01*
G01*
X149949999Y-96125000D01*
G75*
G02*
X149700000Y-95875001I0J249999D01*
G01*
X149700000Y-93724999D01*
G75*
G02*
X149949999Y-93475000I249999J0D01*
G01*
X150975001Y-93475000D01*
G75*
G02*
X151225000Y-93724999I0J-249999D01*
G01*
G37*
G36*
G01*
X155900000Y-93724999D02*
X155900000Y-95875001D01*
G75*
G02*
X155650001Y-96125000I-249999J0D01*
G01*
X154624999Y-96125000D01*
G75*
G02*
X154375000Y-95875001I0J249999D01*
G01*
X154375000Y-93724999D01*
G75*
G02*
X154624999Y-93475000I249999J0D01*
G01*
X155650001Y-93475000D01*
G75*
G02*
X155900000Y-93724999I0J-249999D01*
G01*
G37*
%TD*%
%TO.C,R24*%
G36*
G01*
X202650001Y-79800000D02*
X201749999Y-79800000D01*
G75*
G02*
X201500000Y-79550001I0J249999D01*
G01*
X201500000Y-78849999D01*
G75*
G02*
X201749999Y-78600000I249999J0D01*
G01*
X202650001Y-78600000D01*
G75*
G02*
X202900000Y-78849999I0J-249999D01*
G01*
X202900000Y-79550001D01*
G75*
G02*
X202650001Y-79800000I-249999J0D01*
G01*
G37*
G36*
G01*
X202650001Y-81800000D02*
X201749999Y-81800000D01*
G75*
G02*
X201500000Y-81550001I0J249999D01*
G01*
X201500000Y-80849999D01*
G75*
G02*
X201749999Y-80600000I249999J0D01*
G01*
X202650001Y-80600000D01*
G75*
G02*
X202900000Y-80849999I0J-249999D01*
G01*
X202900000Y-81550001D01*
G75*
G02*
X202650001Y-81800000I-249999J0D01*
G01*
G37*
%TD*%
%TO.C,R23*%
G36*
G01*
X201849999Y-97400000D02*
X202750001Y-97400000D01*
G75*
G02*
X203000000Y-97649999I0J-249999D01*
G01*
X203000000Y-98350001D01*
G75*
G02*
X202750001Y-98600000I-249999J0D01*
G01*
X201849999Y-98600000D01*
G75*
G02*
X201600000Y-98350001I0J249999D01*
G01*
X201600000Y-97649999D01*
G75*
G02*
X201849999Y-97400000I249999J0D01*
G01*
G37*
G36*
G01*
X201849999Y-95400000D02*
X202750001Y-95400000D01*
G75*
G02*
X203000000Y-95649999I0J-249999D01*
G01*
X203000000Y-96350001D01*
G75*
G02*
X202750001Y-96600000I-249999J0D01*
G01*
X201849999Y-96600000D01*
G75*
G02*
X201600000Y-96350001I0J249999D01*
G01*
X201600000Y-95649999D01*
G75*
G02*
X201849999Y-95400000I249999J0D01*
G01*
G37*
%TD*%
%TO.C,R22*%
G36*
G01*
X200450001Y-96600000D02*
X199549999Y-96600000D01*
G75*
G02*
X199300000Y-96350001I0J249999D01*
G01*
X199300000Y-95649999D01*
G75*
G02*
X199549999Y-95400000I249999J0D01*
G01*
X200450001Y-95400000D01*
G75*
G02*
X200700000Y-95649999I0J-249999D01*
G01*
X200700000Y-96350001D01*
G75*
G02*
X200450001Y-96600000I-249999J0D01*
G01*
G37*
G36*
G01*
X200450001Y-98600000D02*
X199549999Y-98600000D01*
G75*
G02*
X199300000Y-98350001I0J249999D01*
G01*
X199300000Y-97649999D01*
G75*
G02*
X199549999Y-97400000I249999J0D01*
G01*
X200450001Y-97400000D01*
G75*
G02*
X200700000Y-97649999I0J-249999D01*
G01*
X200700000Y-98350001D01*
G75*
G02*
X200450001Y-98600000I-249999J0D01*
G01*
G37*
%TD*%
D10*
%TO.C,U5*%
X186675000Y-103425000D03*
X189725000Y-106775000D03*
X189725000Y-103425000D03*
X186675000Y-106775000D03*
D11*
X185920000Y-98800000D03*
X187060000Y-98800000D03*
X188200000Y-98800000D03*
X189340000Y-98800000D03*
X190480000Y-98800000D03*
%TD*%
D10*
%TO.C,U4*%
X186675000Y-86525000D03*
X189725000Y-89875000D03*
X189725000Y-86525000D03*
X186675000Y-89875000D03*
D11*
X185920000Y-81900000D03*
X187060000Y-81900000D03*
X188200000Y-81900000D03*
X189340000Y-81900000D03*
X190480000Y-81900000D03*
%TD*%
%TO.C,R21*%
G36*
G01*
X197049999Y-97400000D02*
X197950001Y-97400000D01*
G75*
G02*
X198200000Y-97649999I0J-249999D01*
G01*
X198200000Y-98350001D01*
G75*
G02*
X197950001Y-98600000I-249999J0D01*
G01*
X197049999Y-98600000D01*
G75*
G02*
X196800000Y-98350001I0J249999D01*
G01*
X196800000Y-97649999D01*
G75*
G02*
X197049999Y-97400000I249999J0D01*
G01*
G37*
G36*
G01*
X197049999Y-95400000D02*
X197950001Y-95400000D01*
G75*
G02*
X198200000Y-95649999I0J-249999D01*
G01*
X198200000Y-96350001D01*
G75*
G02*
X197950001Y-96600000I-249999J0D01*
G01*
X197049999Y-96600000D01*
G75*
G02*
X196800000Y-96350001I0J249999D01*
G01*
X196800000Y-95649999D01*
G75*
G02*
X197049999Y-95400000I249999J0D01*
G01*
G37*
%TD*%
%TO.C,R19*%
G36*
G01*
X200350001Y-79800000D02*
X199449999Y-79800000D01*
G75*
G02*
X199200000Y-79550001I0J249999D01*
G01*
X199200000Y-78849999D01*
G75*
G02*
X199449999Y-78600000I249999J0D01*
G01*
X200350001Y-78600000D01*
G75*
G02*
X200600000Y-78849999I0J-249999D01*
G01*
X200600000Y-79550001D01*
G75*
G02*
X200350001Y-79800000I-249999J0D01*
G01*
G37*
G36*
G01*
X200350001Y-81800000D02*
X199449999Y-81800000D01*
G75*
G02*
X199200000Y-81550001I0J249999D01*
G01*
X199200000Y-80849999D01*
G75*
G02*
X199449999Y-80600000I249999J0D01*
G01*
X200350001Y-80600000D01*
G75*
G02*
X200600000Y-80849999I0J-249999D01*
G01*
X200600000Y-81550001D01*
G75*
G02*
X200350001Y-81800000I-249999J0D01*
G01*
G37*
%TD*%
%TO.C,R18*%
G36*
G01*
X197049999Y-80600000D02*
X197950001Y-80600000D01*
G75*
G02*
X198200000Y-80849999I0J-249999D01*
G01*
X198200000Y-81550001D01*
G75*
G02*
X197950001Y-81800000I-249999J0D01*
G01*
X197049999Y-81800000D01*
G75*
G02*
X196800000Y-81550001I0J249999D01*
G01*
X196800000Y-80849999D01*
G75*
G02*
X197049999Y-80600000I249999J0D01*
G01*
G37*
G36*
G01*
X197049999Y-78600000D02*
X197950001Y-78600000D01*
G75*
G02*
X198200000Y-78849999I0J-249999D01*
G01*
X198200000Y-79550001D01*
G75*
G02*
X197950001Y-79800000I-249999J0D01*
G01*
X197049999Y-79800000D01*
G75*
G02*
X196800000Y-79550001I0J249999D01*
G01*
X196800000Y-78849999D01*
G75*
G02*
X197049999Y-78600000I249999J0D01*
G01*
G37*
%TD*%
D12*
%TO.C,L3*%
X196300000Y-106525000D03*
X196300000Y-100975000D03*
%TD*%
%TO.C,L2*%
X196200000Y-89675000D03*
X196200000Y-84125000D03*
%TD*%
%TO.C,D9*%
G36*
G01*
X209075000Y-100375001D02*
X209075000Y-98224999D01*
G75*
G02*
X209324999Y-97975000I249999J0D01*
G01*
X210350001Y-97975000D01*
G75*
G02*
X210600000Y-98224999I0J-249999D01*
G01*
X210600000Y-100375001D01*
G75*
G02*
X210350001Y-100625000I-249999J0D01*
G01*
X209324999Y-100625000D01*
G75*
G02*
X209075000Y-100375001I0J249999D01*
G01*
G37*
G36*
G01*
X204400000Y-100375001D02*
X204400000Y-98224999D01*
G75*
G02*
X204649999Y-97975000I249999J0D01*
G01*
X205675001Y-97975000D01*
G75*
G02*
X205925000Y-98224999I0J-249999D01*
G01*
X205925000Y-100375001D01*
G75*
G02*
X205675001Y-100625000I-249999J0D01*
G01*
X204649999Y-100625000D01*
G75*
G02*
X204400000Y-100375001I0J249999D01*
G01*
G37*
%TD*%
%TO.C,D7*%
G36*
G01*
X208975000Y-83475001D02*
X208975000Y-81324999D01*
G75*
G02*
X209224999Y-81075000I249999J0D01*
G01*
X210250001Y-81075000D01*
G75*
G02*
X210500000Y-81324999I0J-249999D01*
G01*
X210500000Y-83475001D01*
G75*
G02*
X210250001Y-83725000I-249999J0D01*
G01*
X209224999Y-83725000D01*
G75*
G02*
X208975000Y-83475001I0J249999D01*
G01*
G37*
G36*
G01*
X204300000Y-83475001D02*
X204300000Y-81324999D01*
G75*
G02*
X204549999Y-81075000I249999J0D01*
G01*
X205575001Y-81075000D01*
G75*
G02*
X205825000Y-81324999I0J-249999D01*
G01*
X205825000Y-83475001D01*
G75*
G02*
X205575001Y-83725000I-249999J0D01*
G01*
X204549999Y-83725000D01*
G75*
G02*
X204300000Y-83475001I0J249999D01*
G01*
G37*
%TD*%
%TO.C,C18*%
G36*
G01*
X193625000Y-97450000D02*
X194575000Y-97450000D01*
G75*
G02*
X194825000Y-97700000I0J-250000D01*
G01*
X194825000Y-98375000D01*
G75*
G02*
X194575000Y-98625000I-250000J0D01*
G01*
X193625000Y-98625000D01*
G75*
G02*
X193375000Y-98375000I0J250000D01*
G01*
X193375000Y-97700000D01*
G75*
G02*
X193625000Y-97450000I250000J0D01*
G01*
G37*
G36*
G01*
X193625000Y-95375000D02*
X194575000Y-95375000D01*
G75*
G02*
X194825000Y-95625000I0J-250000D01*
G01*
X194825000Y-96300000D01*
G75*
G02*
X194575000Y-96550000I-250000J0D01*
G01*
X193625000Y-96550000D01*
G75*
G02*
X193375000Y-96300000I0J250000D01*
G01*
X193375000Y-95625000D01*
G75*
G02*
X193625000Y-95375000I250000J0D01*
G01*
G37*
%TD*%
%TO.C,C16*%
G36*
G01*
X193525000Y-80550000D02*
X194475000Y-80550000D01*
G75*
G02*
X194725000Y-80800000I0J-250000D01*
G01*
X194725000Y-81475000D01*
G75*
G02*
X194475000Y-81725000I-250000J0D01*
G01*
X193525000Y-81725000D01*
G75*
G02*
X193275000Y-81475000I0J250000D01*
G01*
X193275000Y-80800000D01*
G75*
G02*
X193525000Y-80550000I250000J0D01*
G01*
G37*
G36*
G01*
X193525000Y-78475000D02*
X194475000Y-78475000D01*
G75*
G02*
X194725000Y-78725000I0J-250000D01*
G01*
X194725000Y-79400000D01*
G75*
G02*
X194475000Y-79650000I-250000J0D01*
G01*
X193525000Y-79650000D01*
G75*
G02*
X193275000Y-79400000I0J250000D01*
G01*
X193275000Y-78725000D01*
G75*
G02*
X193525000Y-78475000I250000J0D01*
G01*
G37*
%TD*%
%TO.C,R17*%
G36*
G01*
X154220000Y-114330001D02*
X154220000Y-113429999D01*
G75*
G02*
X154469999Y-113180000I249999J0D01*
G01*
X155170001Y-113180000D01*
G75*
G02*
X155420000Y-113429999I0J-249999D01*
G01*
X155420000Y-114330001D01*
G75*
G02*
X155170001Y-114580000I-249999J0D01*
G01*
X154469999Y-114580000D01*
G75*
G02*
X154220000Y-114330001I0J249999D01*
G01*
G37*
G36*
G01*
X152220000Y-114330001D02*
X152220000Y-113429999D01*
G75*
G02*
X152469999Y-113180000I249999J0D01*
G01*
X153170001Y-113180000D01*
G75*
G02*
X153420000Y-113429999I0J-249999D01*
G01*
X153420000Y-114330001D01*
G75*
G02*
X153170001Y-114580000I-249999J0D01*
G01*
X152469999Y-114580000D01*
G75*
G02*
X152220000Y-114330001I0J249999D01*
G01*
G37*
%TD*%
%TO.C,R16*%
G36*
G01*
X154280000Y-111320001D02*
X154280000Y-110419999D01*
G75*
G02*
X154529999Y-110170000I249999J0D01*
G01*
X155230001Y-110170000D01*
G75*
G02*
X155480000Y-110419999I0J-249999D01*
G01*
X155480000Y-111320001D01*
G75*
G02*
X155230001Y-111570000I-249999J0D01*
G01*
X154529999Y-111570000D01*
G75*
G02*
X154280000Y-111320001I0J249999D01*
G01*
G37*
G36*
G01*
X152280000Y-111320001D02*
X152280000Y-110419999D01*
G75*
G02*
X152529999Y-110170000I249999J0D01*
G01*
X153230001Y-110170000D01*
G75*
G02*
X153480000Y-110419999I0J-249999D01*
G01*
X153480000Y-111320001D01*
G75*
G02*
X153230001Y-111570000I-249999J0D01*
G01*
X152529999Y-111570000D01*
G75*
G02*
X152280000Y-111320001I0J249999D01*
G01*
G37*
%TD*%
%TO.C,R15*%
G36*
G01*
X149470000Y-114330001D02*
X149470000Y-113429999D01*
G75*
G02*
X149719999Y-113180000I249999J0D01*
G01*
X150420001Y-113180000D01*
G75*
G02*
X150670000Y-113429999I0J-249999D01*
G01*
X150670000Y-114330001D01*
G75*
G02*
X150420001Y-114580000I-249999J0D01*
G01*
X149719999Y-114580000D01*
G75*
G02*
X149470000Y-114330001I0J249999D01*
G01*
G37*
G36*
G01*
X147470000Y-114330001D02*
X147470000Y-113429999D01*
G75*
G02*
X147719999Y-113180000I249999J0D01*
G01*
X148420001Y-113180000D01*
G75*
G02*
X148670000Y-113429999I0J-249999D01*
G01*
X148670000Y-114330001D01*
G75*
G02*
X148420001Y-114580000I-249999J0D01*
G01*
X147719999Y-114580000D01*
G75*
G02*
X147470000Y-114330001I0J249999D01*
G01*
G37*
%TD*%
%TO.C,C17*%
G36*
G01*
X149550000Y-111375000D02*
X149550000Y-110425000D01*
G75*
G02*
X149800000Y-110175000I250000J0D01*
G01*
X150475000Y-110175000D01*
G75*
G02*
X150725000Y-110425000I0J-250000D01*
G01*
X150725000Y-111375000D01*
G75*
G02*
X150475000Y-111625000I-250000J0D01*
G01*
X149800000Y-111625000D01*
G75*
G02*
X149550000Y-111375000I0J250000D01*
G01*
G37*
G36*
G01*
X147475000Y-111375000D02*
X147475000Y-110425000D01*
G75*
G02*
X147725000Y-110175000I250000J0D01*
G01*
X148400000Y-110175000D01*
G75*
G02*
X148650000Y-110425000I0J-250000D01*
G01*
X148650000Y-111375000D01*
G75*
G02*
X148400000Y-111625000I-250000J0D01*
G01*
X147725000Y-111625000D01*
G75*
G02*
X147475000Y-111375000I0J250000D01*
G01*
G37*
%TD*%
%TO.C,C10*%
G36*
G01*
X142900000Y-89650002D02*
X142900000Y-88349998D01*
G75*
G02*
X143149998Y-88100000I249998J0D01*
G01*
X143975002Y-88100000D01*
G75*
G02*
X144225000Y-88349998I0J-249998D01*
G01*
X144225000Y-89650002D01*
G75*
G02*
X143975002Y-89900000I-249998J0D01*
G01*
X143149998Y-89900000D01*
G75*
G02*
X142900000Y-89650002I0J249998D01*
G01*
G37*
G36*
G01*
X139775000Y-89650002D02*
X139775000Y-88349998D01*
G75*
G02*
X140024998Y-88100000I249998J0D01*
G01*
X140850002Y-88100000D01*
G75*
G02*
X141100000Y-88349998I0J-249998D01*
G01*
X141100000Y-89650002D01*
G75*
G02*
X140850002Y-89900000I-249998J0D01*
G01*
X140024998Y-89900000D01*
G75*
G02*
X139775000Y-89650002I0J249998D01*
G01*
G37*
%TD*%
%TO.C,C9*%
G36*
G01*
X94475000Y-102450000D02*
X93525000Y-102450000D01*
G75*
G02*
X93275000Y-102200000I0J250000D01*
G01*
X93275000Y-101525000D01*
G75*
G02*
X93525000Y-101275000I250000J0D01*
G01*
X94475000Y-101275000D01*
G75*
G02*
X94725000Y-101525000I0J-250000D01*
G01*
X94725000Y-102200000D01*
G75*
G02*
X94475000Y-102450000I-250000J0D01*
G01*
G37*
G36*
G01*
X94475000Y-104525000D02*
X93525000Y-104525000D01*
G75*
G02*
X93275000Y-104275000I0J250000D01*
G01*
X93275000Y-103600000D01*
G75*
G02*
X93525000Y-103350000I250000J0D01*
G01*
X94475000Y-103350000D01*
G75*
G02*
X94725000Y-103600000I0J-250000D01*
G01*
X94725000Y-104275000D01*
G75*
G02*
X94475000Y-104525000I-250000J0D01*
G01*
G37*
%TD*%
%TO.C,U7*%
G36*
G01*
X141930000Y-86005000D02*
X141930000Y-86305000D01*
G75*
G02*
X141780000Y-86455000I-150000J0D01*
G01*
X140130000Y-86455000D01*
G75*
G02*
X139980000Y-86305000I0J150000D01*
G01*
X139980000Y-86005000D01*
G75*
G02*
X140130000Y-85855000I150000J0D01*
G01*
X141780000Y-85855000D01*
G75*
G02*
X141930000Y-86005000I0J-150000D01*
G01*
G37*
G36*
G01*
X141930000Y-84735000D02*
X141930000Y-85035000D01*
G75*
G02*
X141780000Y-85185000I-150000J0D01*
G01*
X140130000Y-85185000D01*
G75*
G02*
X139980000Y-85035000I0J150000D01*
G01*
X139980000Y-84735000D01*
G75*
G02*
X140130000Y-84585000I150000J0D01*
G01*
X141780000Y-84585000D01*
G75*
G02*
X141930000Y-84735000I0J-150000D01*
G01*
G37*
G36*
G01*
X141930000Y-83465000D02*
X141930000Y-83765000D01*
G75*
G02*
X141780000Y-83915000I-150000J0D01*
G01*
X140130000Y-83915000D01*
G75*
G02*
X139980000Y-83765000I0J150000D01*
G01*
X139980000Y-83465000D01*
G75*
G02*
X140130000Y-83315000I150000J0D01*
G01*
X141780000Y-83315000D01*
G75*
G02*
X141930000Y-83465000I0J-150000D01*
G01*
G37*
G36*
G01*
X141930000Y-82195000D02*
X141930000Y-82495000D01*
G75*
G02*
X141780000Y-82645000I-150000J0D01*
G01*
X140130000Y-82645000D01*
G75*
G02*
X139980000Y-82495000I0J150000D01*
G01*
X139980000Y-82195000D01*
G75*
G02*
X140130000Y-82045000I150000J0D01*
G01*
X141780000Y-82045000D01*
G75*
G02*
X141930000Y-82195000I0J-150000D01*
G01*
G37*
G36*
G01*
X146880000Y-82195000D02*
X146880000Y-82495000D01*
G75*
G02*
X146730000Y-82645000I-150000J0D01*
G01*
X145080000Y-82645000D01*
G75*
G02*
X144930000Y-82495000I0J150000D01*
G01*
X144930000Y-82195000D01*
G75*
G02*
X145080000Y-82045000I150000J0D01*
G01*
X146730000Y-82045000D01*
G75*
G02*
X146880000Y-82195000I0J-150000D01*
G01*
G37*
G36*
G01*
X146880000Y-83465000D02*
X146880000Y-83765000D01*
G75*
G02*
X146730000Y-83915000I-150000J0D01*
G01*
X145080000Y-83915000D01*
G75*
G02*
X144930000Y-83765000I0J150000D01*
G01*
X144930000Y-83465000D01*
G75*
G02*
X145080000Y-83315000I150000J0D01*
G01*
X146730000Y-83315000D01*
G75*
G02*
X146880000Y-83465000I0J-150000D01*
G01*
G37*
G36*
G01*
X146880000Y-84735000D02*
X146880000Y-85035000D01*
G75*
G02*
X146730000Y-85185000I-150000J0D01*
G01*
X145080000Y-85185000D01*
G75*
G02*
X144930000Y-85035000I0J150000D01*
G01*
X144930000Y-84735000D01*
G75*
G02*
X145080000Y-84585000I150000J0D01*
G01*
X146730000Y-84585000D01*
G75*
G02*
X146880000Y-84735000I0J-150000D01*
G01*
G37*
G36*
G01*
X146880000Y-86005000D02*
X146880000Y-86305000D01*
G75*
G02*
X146730000Y-86455000I-150000J0D01*
G01*
X145080000Y-86455000D01*
G75*
G02*
X144930000Y-86305000I0J150000D01*
G01*
X144930000Y-86005000D01*
G75*
G02*
X145080000Y-85855000I150000J0D01*
G01*
X146730000Y-85855000D01*
G75*
G02*
X146880000Y-86005000I0J-150000D01*
G01*
G37*
%TD*%
%TO.C,R39*%
G36*
G01*
X149549999Y-137100000D02*
X150450001Y-137100000D01*
G75*
G02*
X150700000Y-137349999I0J-249999D01*
G01*
X150700000Y-138050001D01*
G75*
G02*
X150450001Y-138300000I-249999J0D01*
G01*
X149549999Y-138300000D01*
G75*
G02*
X149300000Y-138050001I0J249999D01*
G01*
X149300000Y-137349999D01*
G75*
G02*
X149549999Y-137100000I249999J0D01*
G01*
G37*
G36*
G01*
X149549999Y-135100000D02*
X150450001Y-135100000D01*
G75*
G02*
X150700000Y-135349999I0J-249999D01*
G01*
X150700000Y-136050001D01*
G75*
G02*
X150450001Y-136300000I-249999J0D01*
G01*
X149549999Y-136300000D01*
G75*
G02*
X149300000Y-136050001I0J249999D01*
G01*
X149300000Y-135349999D01*
G75*
G02*
X149549999Y-135100000I249999J0D01*
G01*
G37*
%TD*%
%TO.C,R38*%
G36*
G01*
X149549999Y-132400000D02*
X150450001Y-132400000D01*
G75*
G02*
X150700000Y-132649999I0J-249999D01*
G01*
X150700000Y-133350001D01*
G75*
G02*
X150450001Y-133600000I-249999J0D01*
G01*
X149549999Y-133600000D01*
G75*
G02*
X149300000Y-133350001I0J249999D01*
G01*
X149300000Y-132649999D01*
G75*
G02*
X149549999Y-132400000I249999J0D01*
G01*
G37*
G36*
G01*
X149549999Y-130400000D02*
X150450001Y-130400000D01*
G75*
G02*
X150700000Y-130649999I0J-249999D01*
G01*
X150700000Y-131350001D01*
G75*
G02*
X150450001Y-131600000I-249999J0D01*
G01*
X149549999Y-131600000D01*
G75*
G02*
X149300000Y-131350001I0J249999D01*
G01*
X149300000Y-130649999D01*
G75*
G02*
X149549999Y-130400000I249999J0D01*
G01*
G37*
%TD*%
%TO.C,C12*%
G36*
G01*
X167850000Y-93175000D02*
X167850000Y-92225000D01*
G75*
G02*
X168100000Y-91975000I250000J0D01*
G01*
X168775000Y-91975000D01*
G75*
G02*
X169025000Y-92225000I0J-250000D01*
G01*
X169025000Y-93175000D01*
G75*
G02*
X168775000Y-93425000I-250000J0D01*
G01*
X168100000Y-93425000D01*
G75*
G02*
X167850000Y-93175000I0J250000D01*
G01*
G37*
G36*
G01*
X165775000Y-93175000D02*
X165775000Y-92225000D01*
G75*
G02*
X166025000Y-91975000I250000J0D01*
G01*
X166700000Y-91975000D01*
G75*
G02*
X166950000Y-92225000I0J-250000D01*
G01*
X166950000Y-93175000D01*
G75*
G02*
X166700000Y-93425000I-250000J0D01*
G01*
X166025000Y-93425000D01*
G75*
G02*
X165775000Y-93175000I0J250000D01*
G01*
G37*
%TD*%
%TO.C,D3*%
G36*
G01*
X133425000Y-85924999D02*
X133425000Y-88075001D01*
G75*
G02*
X133175001Y-88325000I-249999J0D01*
G01*
X132149999Y-88325000D01*
G75*
G02*
X131900000Y-88075001I0J249999D01*
G01*
X131900000Y-85924999D01*
G75*
G02*
X132149999Y-85675000I249999J0D01*
G01*
X133175001Y-85675000D01*
G75*
G02*
X133425000Y-85924999I0J-249999D01*
G01*
G37*
G36*
G01*
X138100000Y-85924999D02*
X138100000Y-88075001D01*
G75*
G02*
X137850001Y-88325000I-249999J0D01*
G01*
X136824999Y-88325000D01*
G75*
G02*
X136575000Y-88075001I0J249999D01*
G01*
X136575000Y-85924999D01*
G75*
G02*
X136824999Y-85675000I249999J0D01*
G01*
X137850001Y-85675000D01*
G75*
G02*
X138100000Y-85924999I0J-249999D01*
G01*
G37*
%TD*%
%TO.C,D2*%
G36*
G01*
X133425000Y-76924999D02*
X133425000Y-79075001D01*
G75*
G02*
X133175001Y-79325000I-249999J0D01*
G01*
X132149999Y-79325000D01*
G75*
G02*
X131900000Y-79075001I0J249999D01*
G01*
X131900000Y-76924999D01*
G75*
G02*
X132149999Y-76675000I249999J0D01*
G01*
X133175001Y-76675000D01*
G75*
G02*
X133425000Y-76924999I0J-249999D01*
G01*
G37*
G36*
G01*
X138100000Y-76924999D02*
X138100000Y-79075001D01*
G75*
G02*
X137850001Y-79325000I-249999J0D01*
G01*
X136824999Y-79325000D01*
G75*
G02*
X136575000Y-79075001I0J249999D01*
G01*
X136575000Y-76924999D01*
G75*
G02*
X136824999Y-76675000I249999J0D01*
G01*
X137850001Y-76675000D01*
G75*
G02*
X138100000Y-76924999I0J-249999D01*
G01*
G37*
%TD*%
%TO.C,R36*%
G36*
G01*
X206100000Y-148349999D02*
X206100000Y-149250001D01*
G75*
G02*
X205850001Y-149500000I-249999J0D01*
G01*
X205149999Y-149500000D01*
G75*
G02*
X204900000Y-149250001I0J249999D01*
G01*
X204900000Y-148349999D01*
G75*
G02*
X205149999Y-148100000I249999J0D01*
G01*
X205850001Y-148100000D01*
G75*
G02*
X206100000Y-148349999I0J-249999D01*
G01*
G37*
G36*
G01*
X208100000Y-148349999D02*
X208100000Y-149250001D01*
G75*
G02*
X207850001Y-149500000I-249999J0D01*
G01*
X207149999Y-149500000D01*
G75*
G02*
X206900000Y-149250001I0J249999D01*
G01*
X206900000Y-148349999D01*
G75*
G02*
X207149999Y-148100000I249999J0D01*
G01*
X207850001Y-148100000D01*
G75*
G02*
X208100000Y-148349999I0J-249999D01*
G01*
G37*
%TD*%
%TO.C,R12*%
G36*
G01*
X167800000Y-90850001D02*
X167800000Y-89949999D01*
G75*
G02*
X168049999Y-89700000I249999J0D01*
G01*
X168750001Y-89700000D01*
G75*
G02*
X169000000Y-89949999I0J-249999D01*
G01*
X169000000Y-90850001D01*
G75*
G02*
X168750001Y-91100000I-249999J0D01*
G01*
X168049999Y-91100000D01*
G75*
G02*
X167800000Y-90850001I0J249999D01*
G01*
G37*
G36*
G01*
X165800000Y-90850001D02*
X165800000Y-89949999D01*
G75*
G02*
X166049999Y-89700000I249999J0D01*
G01*
X166750001Y-89700000D01*
G75*
G02*
X167000000Y-89949999I0J-249999D01*
G01*
X167000000Y-90850001D01*
G75*
G02*
X166750001Y-91100000I-249999J0D01*
G01*
X166049999Y-91100000D01*
G75*
G02*
X165800000Y-90850001I0J249999D01*
G01*
G37*
%TD*%
D13*
%TO.C,Q4*%
X114000000Y-91100000D03*
X116000000Y-90150000D03*
X116000000Y-92050000D03*
%TD*%
%TO.C,D51*%
G36*
G01*
X207950001Y-151650000D02*
X207049999Y-151650000D01*
G75*
G02*
X206800000Y-151400001I0J249999D01*
G01*
X206800000Y-150749999D01*
G75*
G02*
X207049999Y-150500000I249999J0D01*
G01*
X207950001Y-150500000D01*
G75*
G02*
X208200000Y-150749999I0J-249999D01*
G01*
X208200000Y-151400001D01*
G75*
G02*
X207950001Y-151650000I-249999J0D01*
G01*
G37*
G36*
G01*
X207950001Y-153700000D02*
X207049999Y-153700000D01*
G75*
G02*
X206800000Y-153450001I0J249999D01*
G01*
X206800000Y-152799999D01*
G75*
G02*
X207049999Y-152550000I249999J0D01*
G01*
X207950001Y-152550000D01*
G75*
G02*
X208200000Y-152799999I0J-249999D01*
G01*
X208200000Y-153450001D01*
G75*
G02*
X207950001Y-153700000I-249999J0D01*
G01*
G37*
%TD*%
D14*
%TO.C,U3*%
X105300000Y-87850000D03*
X100700000Y-87850000D03*
X103000000Y-87850000D03*
D15*
X103000000Y-94150000D03*
%TD*%
%TO.C,R34*%
G36*
G01*
X147549999Y-103400000D02*
X148450001Y-103400000D01*
G75*
G02*
X148700000Y-103649999I0J-249999D01*
G01*
X148700000Y-104350001D01*
G75*
G02*
X148450001Y-104600000I-249999J0D01*
G01*
X147549999Y-104600000D01*
G75*
G02*
X147300000Y-104350001I0J249999D01*
G01*
X147300000Y-103649999D01*
G75*
G02*
X147549999Y-103400000I249999J0D01*
G01*
G37*
G36*
G01*
X147549999Y-101400000D02*
X148450001Y-101400000D01*
G75*
G02*
X148700000Y-101649999I0J-249999D01*
G01*
X148700000Y-102350001D01*
G75*
G02*
X148450001Y-102600000I-249999J0D01*
G01*
X147549999Y-102600000D01*
G75*
G02*
X147300000Y-102350001I0J249999D01*
G01*
X147300000Y-101649999D01*
G75*
G02*
X147549999Y-101400000I249999J0D01*
G01*
G37*
%TD*%
%TO.C,R33*%
G36*
G01*
X143400000Y-106450001D02*
X143400000Y-105549999D01*
G75*
G02*
X143649999Y-105300000I249999J0D01*
G01*
X144350001Y-105300000D01*
G75*
G02*
X144600000Y-105549999I0J-249999D01*
G01*
X144600000Y-106450001D01*
G75*
G02*
X144350001Y-106700000I-249999J0D01*
G01*
X143649999Y-106700000D01*
G75*
G02*
X143400000Y-106450001I0J249999D01*
G01*
G37*
G36*
G01*
X141400000Y-106450001D02*
X141400000Y-105549999D01*
G75*
G02*
X141649999Y-105300000I249999J0D01*
G01*
X142350001Y-105300000D01*
G75*
G02*
X142600000Y-105549999I0J-249999D01*
G01*
X142600000Y-106450001D01*
G75*
G02*
X142350001Y-106700000I-249999J0D01*
G01*
X141649999Y-106700000D01*
G75*
G02*
X141400000Y-106450001I0J249999D01*
G01*
G37*
%TD*%
%TO.C,R32*%
G36*
G01*
X143400000Y-102450001D02*
X143400000Y-101549999D01*
G75*
G02*
X143649999Y-101300000I249999J0D01*
G01*
X144350001Y-101300000D01*
G75*
G02*
X144600000Y-101549999I0J-249999D01*
G01*
X144600000Y-102450001D01*
G75*
G02*
X144350001Y-102700000I-249999J0D01*
G01*
X143649999Y-102700000D01*
G75*
G02*
X143400000Y-102450001I0J249999D01*
G01*
G37*
G36*
G01*
X141400000Y-102450001D02*
X141400000Y-101549999D01*
G75*
G02*
X141649999Y-101300000I249999J0D01*
G01*
X142350001Y-101300000D01*
G75*
G02*
X142600000Y-101549999I0J-249999D01*
G01*
X142600000Y-102450001D01*
G75*
G02*
X142350001Y-102700000I-249999J0D01*
G01*
X141649999Y-102700000D01*
G75*
G02*
X141400000Y-102450001I0J249999D01*
G01*
G37*
%TD*%
%TO.C,R31*%
G36*
G01*
X165350001Y-142600000D02*
X164449999Y-142600000D01*
G75*
G02*
X164200000Y-142350001I0J249999D01*
G01*
X164200000Y-141649999D01*
G75*
G02*
X164449999Y-141400000I249999J0D01*
G01*
X165350001Y-141400000D01*
G75*
G02*
X165600000Y-141649999I0J-249999D01*
G01*
X165600000Y-142350001D01*
G75*
G02*
X165350001Y-142600000I-249999J0D01*
G01*
G37*
G36*
G01*
X165350001Y-144600000D02*
X164449999Y-144600000D01*
G75*
G02*
X164200000Y-144350001I0J249999D01*
G01*
X164200000Y-143649999D01*
G75*
G02*
X164449999Y-143400000I249999J0D01*
G01*
X165350001Y-143400000D01*
G75*
G02*
X165600000Y-143649999I0J-249999D01*
G01*
X165600000Y-144350001D01*
G75*
G02*
X165350001Y-144600000I-249999J0D01*
G01*
G37*
%TD*%
%TO.C,R11*%
G36*
G01*
X142450001Y-72600000D02*
X141549999Y-72600000D01*
G75*
G02*
X141300000Y-72350001I0J249999D01*
G01*
X141300000Y-71649999D01*
G75*
G02*
X141549999Y-71400000I249999J0D01*
G01*
X142450001Y-71400000D01*
G75*
G02*
X142700000Y-71649999I0J-249999D01*
G01*
X142700000Y-72350001D01*
G75*
G02*
X142450001Y-72600000I-249999J0D01*
G01*
G37*
G36*
G01*
X142450001Y-74600000D02*
X141549999Y-74600000D01*
G75*
G02*
X141300000Y-74350001I0J249999D01*
G01*
X141300000Y-73649999D01*
G75*
G02*
X141549999Y-73400000I249999J0D01*
G01*
X142450001Y-73400000D01*
G75*
G02*
X142700000Y-73649999I0J-249999D01*
G01*
X142700000Y-74350001D01*
G75*
G02*
X142450001Y-74600000I-249999J0D01*
G01*
G37*
%TD*%
%TO.C,R10*%
G36*
G01*
X135100000Y-82250001D02*
X135100000Y-81349999D01*
G75*
G02*
X135349999Y-81100000I249999J0D01*
G01*
X136050001Y-81100000D01*
G75*
G02*
X136300000Y-81349999I0J-249999D01*
G01*
X136300000Y-82250001D01*
G75*
G02*
X136050001Y-82500000I-249999J0D01*
G01*
X135349999Y-82500000D01*
G75*
G02*
X135100000Y-82250001I0J249999D01*
G01*
G37*
G36*
G01*
X133100000Y-82250001D02*
X133100000Y-81349999D01*
G75*
G02*
X133349999Y-81100000I249999J0D01*
G01*
X134050001Y-81100000D01*
G75*
G02*
X134300000Y-81349999I0J-249999D01*
G01*
X134300000Y-82250001D01*
G75*
G02*
X134050001Y-82500000I-249999J0D01*
G01*
X133349999Y-82500000D01*
G75*
G02*
X133100000Y-82250001I0J249999D01*
G01*
G37*
%TD*%
%TO.C,R7*%
G36*
G01*
X119250001Y-90700000D02*
X118349999Y-90700000D01*
G75*
G02*
X118100000Y-90450001I0J249999D01*
G01*
X118100000Y-89749999D01*
G75*
G02*
X118349999Y-89500000I249999J0D01*
G01*
X119250001Y-89500000D01*
G75*
G02*
X119500000Y-89749999I0J-249999D01*
G01*
X119500000Y-90450001D01*
G75*
G02*
X119250001Y-90700000I-249999J0D01*
G01*
G37*
G36*
G01*
X119250001Y-92700000D02*
X118349999Y-92700000D01*
G75*
G02*
X118100000Y-92450001I0J249999D01*
G01*
X118100000Y-91749999D01*
G75*
G02*
X118349999Y-91500000I249999J0D01*
G01*
X119250001Y-91500000D01*
G75*
G02*
X119500000Y-91749999I0J-249999D01*
G01*
X119500000Y-92450001D01*
G75*
G02*
X119250001Y-92700000I-249999J0D01*
G01*
G37*
%TD*%
%TO.C,R5*%
G36*
G01*
X91249999Y-103300000D02*
X92150001Y-103300000D01*
G75*
G02*
X92400000Y-103549999I0J-249999D01*
G01*
X92400000Y-104250001D01*
G75*
G02*
X92150001Y-104500000I-249999J0D01*
G01*
X91249999Y-104500000D01*
G75*
G02*
X91000000Y-104250001I0J249999D01*
G01*
X91000000Y-103549999D01*
G75*
G02*
X91249999Y-103300000I249999J0D01*
G01*
G37*
G36*
G01*
X91249999Y-101300000D02*
X92150001Y-101300000D01*
G75*
G02*
X92400000Y-101549999I0J-249999D01*
G01*
X92400000Y-102250001D01*
G75*
G02*
X92150001Y-102500000I-249999J0D01*
G01*
X91249999Y-102500000D01*
G75*
G02*
X91000000Y-102250001I0J249999D01*
G01*
X91000000Y-101549999D01*
G75*
G02*
X91249999Y-101300000I249999J0D01*
G01*
G37*
%TD*%
%TO.C,R4*%
G36*
G01*
X94450001Y-98000000D02*
X93549999Y-98000000D01*
G75*
G02*
X93300000Y-97750001I0J249999D01*
G01*
X93300000Y-97049999D01*
G75*
G02*
X93549999Y-96800000I249999J0D01*
G01*
X94450001Y-96800000D01*
G75*
G02*
X94700000Y-97049999I0J-249999D01*
G01*
X94700000Y-97750001D01*
G75*
G02*
X94450001Y-98000000I-249999J0D01*
G01*
G37*
G36*
G01*
X94450001Y-100000000D02*
X93549999Y-100000000D01*
G75*
G02*
X93300000Y-99750001I0J249999D01*
G01*
X93300000Y-99049999D01*
G75*
G02*
X93549999Y-98800000I249999J0D01*
G01*
X94450001Y-98800000D01*
G75*
G02*
X94700000Y-99049999I0J-249999D01*
G01*
X94700000Y-99750001D01*
G75*
G02*
X94450001Y-100000000I-249999J0D01*
G01*
G37*
%TD*%
%TO.C,R3*%
G36*
G01*
X91349999Y-98800000D02*
X92250001Y-98800000D01*
G75*
G02*
X92500000Y-99049999I0J-249999D01*
G01*
X92500000Y-99750001D01*
G75*
G02*
X92250001Y-100000000I-249999J0D01*
G01*
X91349999Y-100000000D01*
G75*
G02*
X91100000Y-99750001I0J249999D01*
G01*
X91100000Y-99049999D01*
G75*
G02*
X91349999Y-98800000I249999J0D01*
G01*
G37*
G36*
G01*
X91349999Y-96800000D02*
X92250001Y-96800000D01*
G75*
G02*
X92500000Y-97049999I0J-249999D01*
G01*
X92500000Y-97750001D01*
G75*
G02*
X92250001Y-98000000I-249999J0D01*
G01*
X91349999Y-98000000D01*
G75*
G02*
X91100000Y-97750001I0J249999D01*
G01*
X91100000Y-97049999D01*
G75*
G02*
X91349999Y-96800000I249999J0D01*
G01*
G37*
%TD*%
%TO.C,D52*%
G36*
G01*
X97450000Y-77250001D02*
X97450000Y-76349999D01*
G75*
G02*
X97699999Y-76100000I249999J0D01*
G01*
X98350001Y-76100000D01*
G75*
G02*
X98600000Y-76349999I0J-249999D01*
G01*
X98600000Y-77250001D01*
G75*
G02*
X98350001Y-77500000I-249999J0D01*
G01*
X97699999Y-77500000D01*
G75*
G02*
X97450000Y-77250001I0J249999D01*
G01*
G37*
G36*
G01*
X95400000Y-77250001D02*
X95400000Y-76349999D01*
G75*
G02*
X95649999Y-76100000I249999J0D01*
G01*
X96300001Y-76100000D01*
G75*
G02*
X96550000Y-76349999I0J-249999D01*
G01*
X96550000Y-77250001D01*
G75*
G02*
X96300001Y-77500000I-249999J0D01*
G01*
X95649999Y-77500000D01*
G75*
G02*
X95400000Y-77250001I0J249999D01*
G01*
G37*
%TD*%
%TO.C,C13*%
G36*
G01*
X151525000Y-103450000D02*
X152475000Y-103450000D01*
G75*
G02*
X152725000Y-103700000I0J-250000D01*
G01*
X152725000Y-104375000D01*
G75*
G02*
X152475000Y-104625000I-250000J0D01*
G01*
X151525000Y-104625000D01*
G75*
G02*
X151275000Y-104375000I0J250000D01*
G01*
X151275000Y-103700000D01*
G75*
G02*
X151525000Y-103450000I250000J0D01*
G01*
G37*
G36*
G01*
X151525000Y-101375000D02*
X152475000Y-101375000D01*
G75*
G02*
X152725000Y-101625000I0J-250000D01*
G01*
X152725000Y-102300000D01*
G75*
G02*
X152475000Y-102550000I-250000J0D01*
G01*
X151525000Y-102550000D01*
G75*
G02*
X151275000Y-102300000I0J250000D01*
G01*
X151275000Y-101625000D01*
G75*
G02*
X151525000Y-101375000I250000J0D01*
G01*
G37*
%TD*%
%TO.C,C11*%
G36*
G01*
X145350000Y-79875000D02*
X145350000Y-78925000D01*
G75*
G02*
X145600000Y-78675000I250000J0D01*
G01*
X146275000Y-78675000D01*
G75*
G02*
X146525000Y-78925000I0J-250000D01*
G01*
X146525000Y-79875000D01*
G75*
G02*
X146275000Y-80125000I-250000J0D01*
G01*
X145600000Y-80125000D01*
G75*
G02*
X145350000Y-79875000I0J250000D01*
G01*
G37*
G36*
G01*
X143275000Y-79875000D02*
X143275000Y-78925000D01*
G75*
G02*
X143525000Y-78675000I250000J0D01*
G01*
X144200000Y-78675000D01*
G75*
G02*
X144450000Y-78925000I0J-250000D01*
G01*
X144450000Y-79875000D01*
G75*
G02*
X144200000Y-80125000I-250000J0D01*
G01*
X143525000Y-80125000D01*
G75*
G02*
X143275000Y-79875000I0J250000D01*
G01*
G37*
%TD*%
%TO.C,C6*%
G36*
G01*
X110900000Y-94650002D02*
X110900000Y-93349998D01*
G75*
G02*
X111149998Y-93100000I249998J0D01*
G01*
X111975002Y-93100000D01*
G75*
G02*
X112225000Y-93349998I0J-249998D01*
G01*
X112225000Y-94650002D01*
G75*
G02*
X111975002Y-94900000I-249998J0D01*
G01*
X111149998Y-94900000D01*
G75*
G02*
X110900000Y-94650002I0J249998D01*
G01*
G37*
G36*
G01*
X107775000Y-94650002D02*
X107775000Y-93349998D01*
G75*
G02*
X108024998Y-93100000I249998J0D01*
G01*
X108850002Y-93100000D01*
G75*
G02*
X109100000Y-93349998I0J-249998D01*
G01*
X109100000Y-94650002D01*
G75*
G02*
X108850002Y-94900000I-249998J0D01*
G01*
X108024998Y-94900000D01*
G75*
G02*
X107775000Y-94650002I0J249998D01*
G01*
G37*
%TD*%
%TO.C,C5*%
G36*
G01*
X107949998Y-88000000D02*
X109250002Y-88000000D01*
G75*
G02*
X109500000Y-88249998I0J-249998D01*
G01*
X109500000Y-89075002D01*
G75*
G02*
X109250002Y-89325000I-249998J0D01*
G01*
X107949998Y-89325000D01*
G75*
G02*
X107700000Y-89075002I0J249998D01*
G01*
X107700000Y-88249998D01*
G75*
G02*
X107949998Y-88000000I249998J0D01*
G01*
G37*
G36*
G01*
X107949998Y-84875000D02*
X109250002Y-84875000D01*
G75*
G02*
X109500000Y-85124998I0J-249998D01*
G01*
X109500000Y-85950002D01*
G75*
G02*
X109250002Y-86200000I-249998J0D01*
G01*
X107949998Y-86200000D01*
G75*
G02*
X107700000Y-85950002I0J249998D01*
G01*
X107700000Y-85124998D01*
G75*
G02*
X107949998Y-84875000I249998J0D01*
G01*
G37*
%TD*%
M02*
