%TF.GenerationSoftware,KiCad,Pcbnew,(5.1.10)-1*%
%TF.CreationDate,2022-09-19T20:48:06-07:00*%
%TF.ProjectId,MPPT_1KW_ESP32_ggmV3,4d505054-5f31-44b5-975f-45535033325f,rev?*%
%TF.SameCoordinates,Original*%
%TF.FileFunction,Paste,Bot*%
%TF.FilePolarity,Positive*%
%FSLAX46Y46*%
G04 Gerber Fmt 4.6, Leading zero omitted, Abs format (unit mm)*
G04 Created by KiCad (PCBNEW (5.1.10)-1) date 2022-09-19 20:48:06*
%MOMM*%
%LPD*%
G01*
G04 APERTURE LIST*
%ADD10R,0.900000X0.800000*%
G04 APERTURE END LIST*
%TO.C,C25*%
G36*
G01*
X204150000Y-102074725D02*
X204150000Y-101125275D01*
G75*
G02*
X204400275Y-100875000I250275J0D01*
G01*
X205074725Y-100875000D01*
G75*
G02*
X205325000Y-101125275I0J-250275D01*
G01*
X205325000Y-102074725D01*
G75*
G02*
X205074725Y-102325000I-250275J0D01*
G01*
X204400275Y-102325000D01*
G75*
G02*
X204150000Y-102074725I0J250275D01*
G01*
G37*
G36*
G01*
X202075000Y-102075000D02*
X202075000Y-101125000D01*
G75*
G02*
X202325000Y-100875000I250000J0D01*
G01*
X203000000Y-100875000D01*
G75*
G02*
X203250000Y-101125000I0J-250000D01*
G01*
X203250000Y-102075000D01*
G75*
G02*
X203000000Y-102325000I-250000J0D01*
G01*
X202325000Y-102325000D01*
G75*
G02*
X202075000Y-102075000I0J250000D01*
G01*
G37*
%TD*%
%TO.C,C24*%
G36*
G01*
X203074725Y-83950000D02*
X202125275Y-83950000D01*
G75*
G02*
X201875000Y-83699725I0J250275D01*
G01*
X201875000Y-83025275D01*
G75*
G02*
X202125275Y-82775000I250275J0D01*
G01*
X203074725Y-82775000D01*
G75*
G02*
X203325000Y-83025275I0J-250275D01*
G01*
X203325000Y-83699725D01*
G75*
G02*
X203074725Y-83950000I-250275J0D01*
G01*
G37*
G36*
G01*
X203074725Y-86025000D02*
X202125275Y-86025000D01*
G75*
G02*
X201875000Y-85774725I0J250275D01*
G01*
X201875000Y-85100275D01*
G75*
G02*
X202125275Y-84850000I250275J0D01*
G01*
X203074725Y-84850000D01*
G75*
G02*
X203325000Y-85100275I0J-250275D01*
G01*
X203325000Y-85774725D01*
G75*
G02*
X203074725Y-86025000I-250275J0D01*
G01*
G37*
%TD*%
%TO.C,C23*%
G36*
G01*
X181550000Y-95174725D02*
X181550000Y-94225275D01*
G75*
G02*
X181800275Y-93975000I250275J0D01*
G01*
X182474725Y-93975000D01*
G75*
G02*
X182725000Y-94225275I0J-250275D01*
G01*
X182725000Y-95174725D01*
G75*
G02*
X182474725Y-95425000I-250275J0D01*
G01*
X181800275Y-95425000D01*
G75*
G02*
X181550000Y-95174725I0J250275D01*
G01*
G37*
G36*
G01*
X179475000Y-95175000D02*
X179475000Y-94225000D01*
G75*
G02*
X179725000Y-93975000I250000J0D01*
G01*
X180400000Y-93975000D01*
G75*
G02*
X180650000Y-94225000I0J-250000D01*
G01*
X180650000Y-95175000D01*
G75*
G02*
X180400000Y-95425000I-250000J0D01*
G01*
X179725000Y-95425000D01*
G75*
G02*
X179475000Y-95175000I0J250000D01*
G01*
G37*
%TD*%
%TO.C,C22*%
G36*
G01*
X181250000Y-78074725D02*
X181250000Y-77125275D01*
G75*
G02*
X181500275Y-76875000I250275J0D01*
G01*
X182174725Y-76875000D01*
G75*
G02*
X182425000Y-77125275I0J-250275D01*
G01*
X182425000Y-78074725D01*
G75*
G02*
X182174725Y-78325000I-250275J0D01*
G01*
X181500275Y-78325000D01*
G75*
G02*
X181250000Y-78074725I0J250275D01*
G01*
G37*
G36*
G01*
X179175000Y-78075000D02*
X179175000Y-77125000D01*
G75*
G02*
X179425000Y-76875000I250000J0D01*
G01*
X180100000Y-76875000D01*
G75*
G02*
X180350000Y-77125000I0J-250000D01*
G01*
X180350000Y-78075000D01*
G75*
G02*
X180100000Y-78325000I-250000J0D01*
G01*
X179425000Y-78325000D01*
G75*
G02*
X179175000Y-78075000I0J250000D01*
G01*
G37*
%TD*%
%TO.C,D6*%
G36*
G01*
X191225000Y-158524999D02*
X191225000Y-160675001D01*
G75*
G02*
X190975001Y-160925000I-249999J0D01*
G01*
X189949999Y-160925000D01*
G75*
G02*
X189700000Y-160675001I0J249999D01*
G01*
X189700000Y-158524999D01*
G75*
G02*
X189949999Y-158275000I249999J0D01*
G01*
X190975001Y-158275000D01*
G75*
G02*
X191225000Y-158524999I0J-249999D01*
G01*
G37*
G36*
G01*
X195900000Y-158524999D02*
X195900000Y-160675001D01*
G75*
G02*
X195650001Y-160925000I-249999J0D01*
G01*
X194624999Y-160925000D01*
G75*
G02*
X194375000Y-160675001I0J249999D01*
G01*
X194375000Y-158524999D01*
G75*
G02*
X194624999Y-158275000I249999J0D01*
G01*
X195650001Y-158275000D01*
G75*
G02*
X195900000Y-158524999I0J-249999D01*
G01*
G37*
%TD*%
%TO.C,D5*%
G36*
G01*
X184375000Y-160775001D02*
X184375000Y-158624999D01*
G75*
G02*
X184624999Y-158375000I249999J0D01*
G01*
X185650001Y-158375000D01*
G75*
G02*
X185900000Y-158624999I0J-249999D01*
G01*
X185900000Y-160775001D01*
G75*
G02*
X185650001Y-161025000I-249999J0D01*
G01*
X184624999Y-161025000D01*
G75*
G02*
X184375000Y-160775001I0J249999D01*
G01*
G37*
G36*
G01*
X179700000Y-160775001D02*
X179700000Y-158624999D01*
G75*
G02*
X179949999Y-158375000I249999J0D01*
G01*
X180975001Y-158375000D01*
G75*
G02*
X181225000Y-158624999I0J-249999D01*
G01*
X181225000Y-160775001D01*
G75*
G02*
X180975001Y-161025000I-249999J0D01*
G01*
X179949999Y-161025000D01*
G75*
G02*
X179700000Y-160775001I0J249999D01*
G01*
G37*
%TD*%
%TO.C,C2*%
G36*
G01*
X94450000Y-104475000D02*
X94450000Y-103525000D01*
G75*
G02*
X94700000Y-103275000I250000J0D01*
G01*
X95375000Y-103275000D01*
G75*
G02*
X95625000Y-103525000I0J-250000D01*
G01*
X95625000Y-104475000D01*
G75*
G02*
X95375000Y-104725000I-250000J0D01*
G01*
X94700000Y-104725000D01*
G75*
G02*
X94450000Y-104475000I0J250000D01*
G01*
G37*
G36*
G01*
X92375000Y-104475000D02*
X92375000Y-103525000D01*
G75*
G02*
X92625000Y-103275000I250000J0D01*
G01*
X93300000Y-103275000D01*
G75*
G02*
X93550000Y-103525000I0J-250000D01*
G01*
X93550000Y-104475000D01*
G75*
G02*
X93300000Y-104725000I-250000J0D01*
G01*
X92625000Y-104725000D01*
G75*
G02*
X92375000Y-104475000I0J250000D01*
G01*
G37*
%TD*%
%TO.C,D8*%
G36*
G01*
X109525000Y-127025100D02*
X109525000Y-129174900D01*
G75*
G02*
X109274900Y-129425000I-250100J0D01*
G01*
X108250100Y-129425000D01*
G75*
G02*
X108000000Y-129174900I0J250100D01*
G01*
X108000000Y-127025100D01*
G75*
G02*
X108250100Y-126775000I250100J0D01*
G01*
X109274900Y-126775000D01*
G75*
G02*
X109525000Y-127025100I0J-250100D01*
G01*
G37*
G36*
G01*
X114200000Y-127024999D02*
X114200000Y-129175001D01*
G75*
G02*
X113950001Y-129425000I-249999J0D01*
G01*
X112924999Y-129425000D01*
G75*
G02*
X112675000Y-129175001I0J249999D01*
G01*
X112675000Y-127024999D01*
G75*
G02*
X112924999Y-126775000I249999J0D01*
G01*
X113950001Y-126775000D01*
G75*
G02*
X114200000Y-127024999I0J-249999D01*
G01*
G37*
%TD*%
%TO.C,D1*%
G36*
G01*
X113675000Y-78174999D02*
X113675000Y-80325001D01*
G75*
G02*
X113425001Y-80575000I-249999J0D01*
G01*
X112399999Y-80575000D01*
G75*
G02*
X112150000Y-80325001I0J249999D01*
G01*
X112150000Y-78174999D01*
G75*
G02*
X112399999Y-77925000I249999J0D01*
G01*
X113425001Y-77925000D01*
G75*
G02*
X113675000Y-78174999I0J-249999D01*
G01*
G37*
G36*
G01*
X118350000Y-78174999D02*
X118350000Y-80325001D01*
G75*
G02*
X118100001Y-80575000I-249999J0D01*
G01*
X117074999Y-80575000D01*
G75*
G02*
X116825000Y-80325001I0J249999D01*
G01*
X116825000Y-78174999D01*
G75*
G02*
X117074999Y-77925000I249999J0D01*
G01*
X118100001Y-77925000D01*
G75*
G02*
X118350000Y-78174999I0J-249999D01*
G01*
G37*
%TD*%
%TO.C,R30*%
G36*
G01*
X196600000Y-134450001D02*
X196600000Y-133549999D01*
G75*
G02*
X196849999Y-133300000I249999J0D01*
G01*
X197550001Y-133300000D01*
G75*
G02*
X197800000Y-133549999I0J-249999D01*
G01*
X197800000Y-134450001D01*
G75*
G02*
X197550001Y-134700000I-249999J0D01*
G01*
X196849999Y-134700000D01*
G75*
G02*
X196600000Y-134450001I0J249999D01*
G01*
G37*
G36*
G01*
X194600000Y-134450001D02*
X194600000Y-133549999D01*
G75*
G02*
X194849999Y-133300000I249999J0D01*
G01*
X195550001Y-133300000D01*
G75*
G02*
X195800000Y-133549999I0J-249999D01*
G01*
X195800000Y-134450001D01*
G75*
G02*
X195550001Y-134700000I-249999J0D01*
G01*
X194849999Y-134700000D01*
G75*
G02*
X194600000Y-134450001I0J249999D01*
G01*
G37*
%TD*%
%TO.C,R29*%
G36*
G01*
X196600000Y-127150001D02*
X196600000Y-126249999D01*
G75*
G02*
X196849999Y-126000000I249999J0D01*
G01*
X197550001Y-126000000D01*
G75*
G02*
X197800000Y-126249999I0J-249999D01*
G01*
X197800000Y-127150001D01*
G75*
G02*
X197550001Y-127400000I-249999J0D01*
G01*
X196849999Y-127400000D01*
G75*
G02*
X196600000Y-127150001I0J249999D01*
G01*
G37*
G36*
G01*
X194600000Y-127150001D02*
X194600000Y-126249999D01*
G75*
G02*
X194849999Y-126000000I249999J0D01*
G01*
X195550001Y-126000000D01*
G75*
G02*
X195800000Y-126249999I0J-249999D01*
G01*
X195800000Y-127150001D01*
G75*
G02*
X195550001Y-127400000I-249999J0D01*
G01*
X194849999Y-127400000D01*
G75*
G02*
X194600000Y-127150001I0J249999D01*
G01*
G37*
%TD*%
%TO.C,R28*%
G36*
G01*
X211400000Y-131450001D02*
X211400000Y-130549999D01*
G75*
G02*
X211649999Y-130300000I249999J0D01*
G01*
X212350001Y-130300000D01*
G75*
G02*
X212600000Y-130549999I0J-249999D01*
G01*
X212600000Y-131450001D01*
G75*
G02*
X212350001Y-131700000I-249999J0D01*
G01*
X211649999Y-131700000D01*
G75*
G02*
X211400000Y-131450001I0J249999D01*
G01*
G37*
G36*
G01*
X209400000Y-131450001D02*
X209400000Y-130549999D01*
G75*
G02*
X209649999Y-130300000I249999J0D01*
G01*
X210350001Y-130300000D01*
G75*
G02*
X210600000Y-130549999I0J-249999D01*
G01*
X210600000Y-131450001D01*
G75*
G02*
X210350001Y-131700000I-249999J0D01*
G01*
X209649999Y-131700000D01*
G75*
G02*
X209400000Y-131450001I0J249999D01*
G01*
G37*
%TD*%
%TO.C,R27*%
G36*
G01*
X211400000Y-128450001D02*
X211400000Y-127549999D01*
G75*
G02*
X211649999Y-127300000I249999J0D01*
G01*
X212350001Y-127300000D01*
G75*
G02*
X212600000Y-127549999I0J-249999D01*
G01*
X212600000Y-128450001D01*
G75*
G02*
X212350001Y-128700000I-249999J0D01*
G01*
X211649999Y-128700000D01*
G75*
G02*
X211400000Y-128450001I0J249999D01*
G01*
G37*
G36*
G01*
X209400000Y-128450001D02*
X209400000Y-127549999D01*
G75*
G02*
X209649999Y-127300000I249999J0D01*
G01*
X210350001Y-127300000D01*
G75*
G02*
X210600000Y-127549999I0J-249999D01*
G01*
X210600000Y-128450001D01*
G75*
G02*
X210350001Y-128700000I-249999J0D01*
G01*
X209649999Y-128700000D01*
G75*
G02*
X209400000Y-128450001I0J249999D01*
G01*
G37*
%TD*%
%TO.C,R26*%
G36*
G01*
X211400000Y-125450001D02*
X211400000Y-124549999D01*
G75*
G02*
X211649999Y-124300000I249999J0D01*
G01*
X212350001Y-124300000D01*
G75*
G02*
X212600000Y-124549999I0J-249999D01*
G01*
X212600000Y-125450001D01*
G75*
G02*
X212350001Y-125700000I-249999J0D01*
G01*
X211649999Y-125700000D01*
G75*
G02*
X211400000Y-125450001I0J249999D01*
G01*
G37*
G36*
G01*
X209400000Y-125450001D02*
X209400000Y-124549999D01*
G75*
G02*
X209649999Y-124300000I249999J0D01*
G01*
X210350001Y-124300000D01*
G75*
G02*
X210600000Y-124549999I0J-249999D01*
G01*
X210600000Y-125450001D01*
G75*
G02*
X210350001Y-125700000I-249999J0D01*
G01*
X209649999Y-125700000D01*
G75*
G02*
X209400000Y-125450001I0J249999D01*
G01*
G37*
%TD*%
%TO.C,R25*%
G36*
G01*
X211400000Y-122450001D02*
X211400000Y-121549999D01*
G75*
G02*
X211649999Y-121300000I249999J0D01*
G01*
X212350001Y-121300000D01*
G75*
G02*
X212600000Y-121549999I0J-249999D01*
G01*
X212600000Y-122450001D01*
G75*
G02*
X212350001Y-122700000I-249999J0D01*
G01*
X211649999Y-122700000D01*
G75*
G02*
X211400000Y-122450001I0J249999D01*
G01*
G37*
G36*
G01*
X209400000Y-122450001D02*
X209400000Y-121549999D01*
G75*
G02*
X209649999Y-121300000I249999J0D01*
G01*
X210350001Y-121300000D01*
G75*
G02*
X210600000Y-121549999I0J-249999D01*
G01*
X210600000Y-122450001D01*
G75*
G02*
X210350001Y-122700000I-249999J0D01*
G01*
X209649999Y-122700000D01*
G75*
G02*
X209400000Y-122450001I0J249999D01*
G01*
G37*
%TD*%
%TO.C,R14*%
G36*
G01*
X206050001Y-114000000D02*
X205149999Y-114000000D01*
G75*
G02*
X204900000Y-113750001I0J249999D01*
G01*
X204900000Y-113049999D01*
G75*
G02*
X205149999Y-112800000I249999J0D01*
G01*
X206050001Y-112800000D01*
G75*
G02*
X206300000Y-113049999I0J-249999D01*
G01*
X206300000Y-113750001D01*
G75*
G02*
X206050001Y-114000000I-249999J0D01*
G01*
G37*
G36*
G01*
X206050001Y-116000000D02*
X205149999Y-116000000D01*
G75*
G02*
X204900000Y-115750001I0J249999D01*
G01*
X204900000Y-115049999D01*
G75*
G02*
X205149999Y-114800000I249999J0D01*
G01*
X206050001Y-114800000D01*
G75*
G02*
X206300000Y-115049999I0J-249999D01*
G01*
X206300000Y-115750001D01*
G75*
G02*
X206050001Y-116000000I-249999J0D01*
G01*
G37*
%TD*%
D10*
%TO.C,Q5*%
X210500000Y-114400000D03*
X208500000Y-113450000D03*
X208500000Y-115350000D03*
%TD*%
%TO.C,U1*%
G36*
G01*
X94500000Y-96945000D02*
X94500000Y-97245000D01*
G75*
G02*
X94350000Y-97395000I-150000J0D01*
G01*
X92700000Y-97395000D01*
G75*
G02*
X92550000Y-97245000I0J150000D01*
G01*
X92550000Y-96945000D01*
G75*
G02*
X92700000Y-96795000I150000J0D01*
G01*
X94350000Y-96795000D01*
G75*
G02*
X94500000Y-96945000I0J-150000D01*
G01*
G37*
G36*
G01*
X94500000Y-98215000D02*
X94500000Y-98515000D01*
G75*
G02*
X94350000Y-98665000I-150000J0D01*
G01*
X92700000Y-98665000D01*
G75*
G02*
X92550000Y-98515000I0J150000D01*
G01*
X92550000Y-98215000D01*
G75*
G02*
X92700000Y-98065000I150000J0D01*
G01*
X94350000Y-98065000D01*
G75*
G02*
X94500000Y-98215000I0J-150000D01*
G01*
G37*
G36*
G01*
X94500000Y-99485000D02*
X94500000Y-99785000D01*
G75*
G02*
X94350000Y-99935000I-150000J0D01*
G01*
X92700000Y-99935000D01*
G75*
G02*
X92550000Y-99785000I0J150000D01*
G01*
X92550000Y-99485000D01*
G75*
G02*
X92700000Y-99335000I150000J0D01*
G01*
X94350000Y-99335000D01*
G75*
G02*
X94500000Y-99485000I0J-150000D01*
G01*
G37*
G36*
G01*
X94500000Y-100755000D02*
X94500000Y-101055000D01*
G75*
G02*
X94350000Y-101205000I-150000J0D01*
G01*
X92700000Y-101205000D01*
G75*
G02*
X92550000Y-101055000I0J150000D01*
G01*
X92550000Y-100755000D01*
G75*
G02*
X92700000Y-100605000I150000J0D01*
G01*
X94350000Y-100605000D01*
G75*
G02*
X94500000Y-100755000I0J-150000D01*
G01*
G37*
G36*
G01*
X99450000Y-100755000D02*
X99450000Y-101055000D01*
G75*
G02*
X99300000Y-101205000I-150000J0D01*
G01*
X97650000Y-101205000D01*
G75*
G02*
X97500000Y-101055000I0J150000D01*
G01*
X97500000Y-100755000D01*
G75*
G02*
X97650000Y-100605000I150000J0D01*
G01*
X99300000Y-100605000D01*
G75*
G02*
X99450000Y-100755000I0J-150000D01*
G01*
G37*
G36*
G01*
X99450000Y-99485000D02*
X99450000Y-99785000D01*
G75*
G02*
X99300000Y-99935000I-150000J0D01*
G01*
X97650000Y-99935000D01*
G75*
G02*
X97500000Y-99785000I0J150000D01*
G01*
X97500000Y-99485000D01*
G75*
G02*
X97650000Y-99335000I150000J0D01*
G01*
X99300000Y-99335000D01*
G75*
G02*
X99450000Y-99485000I0J-150000D01*
G01*
G37*
G36*
G01*
X99450000Y-98215000D02*
X99450000Y-98515000D01*
G75*
G02*
X99300000Y-98665000I-150000J0D01*
G01*
X97650000Y-98665000D01*
G75*
G02*
X97500000Y-98515000I0J150000D01*
G01*
X97500000Y-98215000D01*
G75*
G02*
X97650000Y-98065000I150000J0D01*
G01*
X99300000Y-98065000D01*
G75*
G02*
X99450000Y-98215000I0J-150000D01*
G01*
G37*
G36*
G01*
X99450000Y-96945000D02*
X99450000Y-97245000D01*
G75*
G02*
X99300000Y-97395000I-150000J0D01*
G01*
X97650000Y-97395000D01*
G75*
G02*
X97500000Y-97245000I0J150000D01*
G01*
X97500000Y-96945000D01*
G75*
G02*
X97650000Y-96795000I150000J0D01*
G01*
X99300000Y-96795000D01*
G75*
G02*
X99450000Y-96945000I0J-150000D01*
G01*
G37*
%TD*%
%TO.C,R37*%
G36*
G01*
X102400000Y-77450001D02*
X102400000Y-76549999D01*
G75*
G02*
X102649999Y-76300000I249999J0D01*
G01*
X103350001Y-76300000D01*
G75*
G02*
X103600000Y-76549999I0J-249999D01*
G01*
X103600000Y-77450001D01*
G75*
G02*
X103350001Y-77700000I-249999J0D01*
G01*
X102649999Y-77700000D01*
G75*
G02*
X102400000Y-77450001I0J249999D01*
G01*
G37*
G36*
G01*
X100400000Y-77450001D02*
X100400000Y-76549999D01*
G75*
G02*
X100649999Y-76300000I249999J0D01*
G01*
X101350001Y-76300000D01*
G75*
G02*
X101600000Y-76549999I0J-249999D01*
G01*
X101600000Y-77450001D01*
G75*
G02*
X101350001Y-77700000I-249999J0D01*
G01*
X100649999Y-77700000D01*
G75*
G02*
X100400000Y-77450001I0J249999D01*
G01*
G37*
%TD*%
%TO.C,R20*%
G36*
G01*
X180700000Y-137150001D02*
X180700000Y-136249999D01*
G75*
G02*
X180949999Y-136000000I249999J0D01*
G01*
X181650001Y-136000000D01*
G75*
G02*
X181900000Y-136249999I0J-249999D01*
G01*
X181900000Y-137150001D01*
G75*
G02*
X181650001Y-137400000I-249999J0D01*
G01*
X180949999Y-137400000D01*
G75*
G02*
X180700000Y-137150001I0J249999D01*
G01*
G37*
G36*
G01*
X178700000Y-137150001D02*
X178700000Y-136249999D01*
G75*
G02*
X178949999Y-136000000I249999J0D01*
G01*
X179650001Y-136000000D01*
G75*
G02*
X179900000Y-136249999I0J-249999D01*
G01*
X179900000Y-137150001D01*
G75*
G02*
X179650001Y-137400000I-249999J0D01*
G01*
X178949999Y-137400000D01*
G75*
G02*
X178700000Y-137150001I0J249999D01*
G01*
G37*
%TD*%
%TO.C,R13*%
G36*
G01*
X180800000Y-139650001D02*
X180800000Y-138749999D01*
G75*
G02*
X181049999Y-138500000I249999J0D01*
G01*
X181750001Y-138500000D01*
G75*
G02*
X182000000Y-138749999I0J-249999D01*
G01*
X182000000Y-139650001D01*
G75*
G02*
X181750001Y-139900000I-249999J0D01*
G01*
X181049999Y-139900000D01*
G75*
G02*
X180800000Y-139650001I0J249999D01*
G01*
G37*
G36*
G01*
X178800000Y-139650001D02*
X178800000Y-138749999D01*
G75*
G02*
X179049999Y-138500000I249999J0D01*
G01*
X179750001Y-138500000D01*
G75*
G02*
X180000000Y-138749999I0J-249999D01*
G01*
X180000000Y-139650001D01*
G75*
G02*
X179750001Y-139900000I-249999J0D01*
G01*
X179049999Y-139900000D01*
G75*
G02*
X178800000Y-139650001I0J249999D01*
G01*
G37*
%TD*%
%TO.C,R9*%
G36*
G01*
X115400000Y-83450001D02*
X115400000Y-82549999D01*
G75*
G02*
X115649999Y-82300000I249999J0D01*
G01*
X116350001Y-82300000D01*
G75*
G02*
X116600000Y-82549999I0J-249999D01*
G01*
X116600000Y-83450001D01*
G75*
G02*
X116350001Y-83700000I-249999J0D01*
G01*
X115649999Y-83700000D01*
G75*
G02*
X115400000Y-83450001I0J249999D01*
G01*
G37*
G36*
G01*
X113400000Y-83450001D02*
X113400000Y-82549999D01*
G75*
G02*
X113649999Y-82300000I249999J0D01*
G01*
X114350001Y-82300000D01*
G75*
G02*
X114600000Y-82549999I0J-249999D01*
G01*
X114600000Y-83450001D01*
G75*
G02*
X114350001Y-83700000I-249999J0D01*
G01*
X113649999Y-83700000D01*
G75*
G02*
X113400000Y-83450001I0J249999D01*
G01*
G37*
%TD*%
%TO.C,R8*%
G36*
G01*
X116400000Y-76450001D02*
X116400000Y-75549999D01*
G75*
G02*
X116649999Y-75300000I249999J0D01*
G01*
X117350001Y-75300000D01*
G75*
G02*
X117600000Y-75549999I0J-249999D01*
G01*
X117600000Y-76450001D01*
G75*
G02*
X117350001Y-76700000I-249999J0D01*
G01*
X116649999Y-76700000D01*
G75*
G02*
X116400000Y-76450001I0J249999D01*
G01*
G37*
G36*
G01*
X114400000Y-76450001D02*
X114400000Y-75549999D01*
G75*
G02*
X114649999Y-75300000I249999J0D01*
G01*
X115350001Y-75300000D01*
G75*
G02*
X115600000Y-75549999I0J-249999D01*
G01*
X115600000Y-76450001D01*
G75*
G02*
X115350001Y-76700000I-249999J0D01*
G01*
X114649999Y-76700000D01*
G75*
G02*
X114400000Y-76450001I0J249999D01*
G01*
G37*
%TD*%
%TO.C,R6*%
G36*
G01*
X93810001Y-79060000D02*
X92909999Y-79060000D01*
G75*
G02*
X92660000Y-78810001I0J249999D01*
G01*
X92660000Y-78109999D01*
G75*
G02*
X92909999Y-77860000I249999J0D01*
G01*
X93810001Y-77860000D01*
G75*
G02*
X94060000Y-78109999I0J-249999D01*
G01*
X94060000Y-78810001D01*
G75*
G02*
X93810001Y-79060000I-249999J0D01*
G01*
G37*
G36*
G01*
X93810001Y-81060000D02*
X92909999Y-81060000D01*
G75*
G02*
X92660000Y-80810001I0J249999D01*
G01*
X92660000Y-80109999D01*
G75*
G02*
X92909999Y-79860000I249999J0D01*
G01*
X93810001Y-79860000D01*
G75*
G02*
X94060000Y-80109999I0J-249999D01*
G01*
X94060000Y-80810001D01*
G75*
G02*
X93810001Y-81060000I-249999J0D01*
G01*
G37*
%TD*%
%TO.C,R2*%
G36*
G01*
X114549999Y-166400000D02*
X115450001Y-166400000D01*
G75*
G02*
X115700000Y-166649999I0J-249999D01*
G01*
X115700000Y-167350001D01*
G75*
G02*
X115450001Y-167600000I-249999J0D01*
G01*
X114549999Y-167600000D01*
G75*
G02*
X114300000Y-167350001I0J249999D01*
G01*
X114300000Y-166649999D01*
G75*
G02*
X114549999Y-166400000I249999J0D01*
G01*
G37*
G36*
G01*
X114549999Y-164400000D02*
X115450001Y-164400000D01*
G75*
G02*
X115700000Y-164649999I0J-249999D01*
G01*
X115700000Y-165350001D01*
G75*
G02*
X115450001Y-165600000I-249999J0D01*
G01*
X114549999Y-165600000D01*
G75*
G02*
X114300000Y-165350001I0J249999D01*
G01*
X114300000Y-164649999D01*
G75*
G02*
X114549999Y-164400000I249999J0D01*
G01*
G37*
%TD*%
%TO.C,R1*%
G36*
G01*
X108400000Y-165450001D02*
X108400000Y-164549999D01*
G75*
G02*
X108649999Y-164300000I249999J0D01*
G01*
X109350001Y-164300000D01*
G75*
G02*
X109600000Y-164549999I0J-249999D01*
G01*
X109600000Y-165450001D01*
G75*
G02*
X109350001Y-165700000I-249999J0D01*
G01*
X108649999Y-165700000D01*
G75*
G02*
X108400000Y-165450001I0J249999D01*
G01*
G37*
G36*
G01*
X106400000Y-165450001D02*
X106400000Y-164549999D01*
G75*
G02*
X106649999Y-164300000I249999J0D01*
G01*
X107350001Y-164300000D01*
G75*
G02*
X107600000Y-164549999I0J-249999D01*
G01*
X107600000Y-165450001D01*
G75*
G02*
X107350001Y-165700000I-249999J0D01*
G01*
X106649999Y-165700000D01*
G75*
G02*
X106400000Y-165450001I0J249999D01*
G01*
G37*
%TD*%
%TO.C,C20*%
G36*
G01*
X160950000Y-120775000D02*
X160950000Y-119825000D01*
G75*
G02*
X161200000Y-119575000I250000J0D01*
G01*
X161875000Y-119575000D01*
G75*
G02*
X162125000Y-119825000I0J-250000D01*
G01*
X162125000Y-120775000D01*
G75*
G02*
X161875000Y-121025000I-250000J0D01*
G01*
X161200000Y-121025000D01*
G75*
G02*
X160950000Y-120775000I0J250000D01*
G01*
G37*
G36*
G01*
X158875000Y-120775000D02*
X158875000Y-119825000D01*
G75*
G02*
X159125000Y-119575000I250000J0D01*
G01*
X159800000Y-119575000D01*
G75*
G02*
X160050000Y-119825000I0J-250000D01*
G01*
X160050000Y-120775000D01*
G75*
G02*
X159800000Y-121025000I-250000J0D01*
G01*
X159125000Y-121025000D01*
G75*
G02*
X158875000Y-120775000I0J250000D01*
G01*
G37*
%TD*%
%TO.C,C4*%
G36*
G01*
X92675000Y-85950000D02*
X91725000Y-85950000D01*
G75*
G02*
X91475000Y-85700000I0J250000D01*
G01*
X91475000Y-85025000D01*
G75*
G02*
X91725000Y-84775000I250000J0D01*
G01*
X92675000Y-84775000D01*
G75*
G02*
X92925000Y-85025000I0J-250000D01*
G01*
X92925000Y-85700000D01*
G75*
G02*
X92675000Y-85950000I-250000J0D01*
G01*
G37*
G36*
G01*
X92675000Y-88025000D02*
X91725000Y-88025000D01*
G75*
G02*
X91475000Y-87775000I0J250000D01*
G01*
X91475000Y-87100000D01*
G75*
G02*
X91725000Y-86850000I250000J0D01*
G01*
X92675000Y-86850000D01*
G75*
G02*
X92925000Y-87100000I0J-250000D01*
G01*
X92925000Y-87775000D01*
G75*
G02*
X92675000Y-88025000I-250000J0D01*
G01*
G37*
%TD*%
%TO.C,C3*%
G36*
G01*
X92475000Y-91550000D02*
X91525000Y-91550000D01*
G75*
G02*
X91275000Y-91300000I0J250000D01*
G01*
X91275000Y-90625000D01*
G75*
G02*
X91525000Y-90375000I250000J0D01*
G01*
X92475000Y-90375000D01*
G75*
G02*
X92725000Y-90625000I0J-250000D01*
G01*
X92725000Y-91300000D01*
G75*
G02*
X92475000Y-91550000I-250000J0D01*
G01*
G37*
G36*
G01*
X92475000Y-93625000D02*
X91525000Y-93625000D01*
G75*
G02*
X91275000Y-93375000I0J250000D01*
G01*
X91275000Y-92700000D01*
G75*
G02*
X91525000Y-92450000I250000J0D01*
G01*
X92475000Y-92450000D01*
G75*
G02*
X92725000Y-92700000I0J-250000D01*
G01*
X92725000Y-93375000D01*
G75*
G02*
X92475000Y-93625000I-250000J0D01*
G01*
G37*
%TD*%
%TO.C,C1*%
G36*
G01*
X111525000Y-166450000D02*
X112475000Y-166450000D01*
G75*
G02*
X112725000Y-166700000I0J-250000D01*
G01*
X112725000Y-167375000D01*
G75*
G02*
X112475000Y-167625000I-250000J0D01*
G01*
X111525000Y-167625000D01*
G75*
G02*
X111275000Y-167375000I0J250000D01*
G01*
X111275000Y-166700000D01*
G75*
G02*
X111525000Y-166450000I250000J0D01*
G01*
G37*
G36*
G01*
X111525000Y-164375000D02*
X112475000Y-164375000D01*
G75*
G02*
X112725000Y-164625000I0J-250000D01*
G01*
X112725000Y-165300000D01*
G75*
G02*
X112475000Y-165550000I-250000J0D01*
G01*
X111525000Y-165550000D01*
G75*
G02*
X111275000Y-165300000I0J250000D01*
G01*
X111275000Y-164625000D01*
G75*
G02*
X111525000Y-164375000I250000J0D01*
G01*
G37*
%TD*%
M02*
